<?xml version="1.0" encoding="UTF-8"?>
<!DOCTYPE svg PUBLIC "-//W3C//DTD SVG 1.1//EN" "http://www.w3.org/Graphics/SVG/1.1/DTD/svg11.dtd">
<svg xmlns="http://www.w3.org/2000/svg" version="1.1" width="286px" height="301px" style="shape-rendering:geometricPrecision; text-rendering:geometricPrecision; image-rendering:optimizeQuality; fill-rule:evenodd; clip-rule:evenodd" xmlns:xlink="http://www.w3.org/1999/xlink">
<g><path style="opacity:0.129" fill="#92aac2" d="M 103.5,9.5 C 113.026,8.23273 122.692,8.23273 132.5,9.5C 132.833,10.1667 133.167,10.8333 133.5,11.5C 132.833,11.5 132.167,11.5 131.5,11.5C 130.391,10.71 129.058,10.21 127.5,10C 119.507,9.50029 111.507,9.33362 103.5,9.5 Z"/></g>
<g><path style="opacity:0.863" fill="#345c83" d="M 102.5,10.5 C 102.5,10.1667 102.5,9.83333 102.5,9.5C 102.833,9.5 103.167,9.5 103.5,9.5C 111.507,9.33362 119.507,9.50029 127.5,10C 129.058,10.21 130.391,10.71 131.5,11.5C 121.857,10.675 112.191,10.3417 102.5,10.5 Z"/></g>
<g><path style="opacity:0.996" fill="#023b6f" d="M 102.5,10.5 C 112.191,10.3417 121.857,10.675 131.5,11.5C 132.167,11.5 132.833,11.5 133.5,11.5C 137.956,12.1975 142.29,13.3642 146.5,15C 147.381,15.7083 148.047,16.5416 148.5,17.5C 150.121,19.1172 152.121,20.2838 154.5,21C 151.897,23.7313 151.897,26.5646 154.5,29.5C 153.818,33.1379 153.318,36.8046 153,40.5C 148.934,41.4637 144.767,41.797 140.5,41.5C 140.5,43.1667 140.5,44.8333 140.5,46.5C 136.698,47.1197 133.365,46.2863 130.5,44C 123.654,43.1794 116.987,43.346 110.5,44.5C 109.508,44.3284 108.842,44.6618 108.5,45.5C 105.505,45.2938 102.838,45.9605 100.5,47.5C 96.4885,48.5913 92.8218,50.4247 89.5,53C 84.9357,57.3954 80.6023,61.8954 76.5,66.5C 75.2502,66.5774 74.4169,67.244 74,68.5C 73.2457,71.6392 72.2457,74.6392 71,77.5C 70.3333,76.8333 69.6667,76.1667 69,75.5C 68.0138,77.7778 67.1805,80.1111 66.5,82.5C 65.7261,83.7112 64.8928,83.7112 64,82.5C 63.51,83.7932 63.3433,85.1266 63.5,86.5C 61.5,86.5 59.5,86.5 57.5,86.5C 57.5,88.5 57.5,90.5 57.5,92.5C 55.1667,92.5 52.8333,92.5 50.5,92.5C 50.5,94.5 50.5,96.5 50.5,98.5C 46.4547,98.6425 42.6214,98.6425 39,98.5C 37.8564,88.9319 38.5231,79.5986 41,70.5C 41.4983,67.1832 41.665,63.8499 41.5,60.5C 43.4561,55.6229 45.7895,50.9563 48.5,46.5C 49.9063,46.0269 50.573,45.0269 50.5,43.5C 51.1667,42.1667 52.1667,41.1667 53.5,40.5C 59.4656,36.5344 64.4656,31.5344 68.5,25.5C 68.5,24.8333 68.8333,24.5 69.5,24.5C 71.4966,23.1925 73.4966,21.8592 75.5,20.5C 78.0316,19.4043 80.3649,18.0709 82.5,16.5C 83.5,16.1667 84.1667,15.5 84.5,14.5C 90.5523,13.3707 96.5523,12.0374 102.5,10.5 Z"/></g>
<g><path style="opacity:0.224" fill="#a2bfd1" d="M 102.5,9.5 C 102.5,9.83333 102.5,10.1667 102.5,10.5C 96.5523,12.0374 90.5523,13.3707 84.5,14.5C 90.1893,12.0527 96.1893,10.3861 102.5,9.5 Z"/></g>
<g><path style="opacity:0.043" fill="#ddeeef" d="M 84.5,14.5 C 84.1667,15.5 83.5,16.1667 82.5,16.5C 81.8333,16.5 81.1667,16.5 80.5,16.5C 81.5137,15.3263 82.847,14.6596 84.5,14.5 Z"/></g>
<g><path style="opacity:0.145" fill="#b8cbdc" d="M 132.5,9.5 C 143.683,11.9285 154.017,16.2618 163.5,22.5C 163.5,23.1667 163.5,23.8333 163.5,24.5C 158.912,21.3737 153.912,19.0403 148.5,17.5C 148.047,16.5416 147.381,15.7083 146.5,15C 142.29,13.3642 137.956,12.1975 133.5,11.5C 133.167,10.8333 132.833,10.1667 132.5,9.5 Z"/></g>
<g><path style="opacity:0.455" fill="#93acc2" d="M 80.5,16.5 C 81.1667,16.5 81.8333,16.5 82.5,16.5C 80.3649,18.0709 78.0316,19.4043 75.5,20.5C 74.8333,20.5 74.1667,20.5 73.5,20.5C 75.3356,18.412 77.6689,17.0787 80.5,16.5 Z"/></g>
<g><path style="opacity:0.78" fill="#567290" d="M 73.5,20.5 C 74.1667,20.5 74.8333,20.5 75.5,20.5C 73.4966,21.8592 71.4966,23.1925 69.5,24.5C 70.1667,23.5 70.8333,22.5 71.5,21.5C 71.8417,20.6618 72.5084,20.3284 73.5,20.5 Z"/></g>
<g><path style="opacity:0.133" fill="#c2d5e0" d="M 71.5,21.5 C 70.8333,22.5 70.1667,23.5 69.5,24.5C 68.8333,24.5 68.5,24.8333 68.5,25.5C 65.1847,27.8081 61.8514,30.1414 58.5,32.5C 61.9029,27.7661 66.2362,24.0995 71.5,21.5 Z"/></g>
<g><path style="opacity:0.996" fill="#054172" d="M 148.5,17.5 C 153.912,19.0403 158.912,21.3737 163.5,24.5C 167.454,28.1165 171.454,31.7831 175.5,35.5C 176.952,36.9397 177.952,38.6064 178.5,40.5C 179.15,42.4352 179.483,44.4352 179.5,46.5C 177.312,47.6518 177.312,49.1518 179.5,51C 175.656,53.4928 171.323,54.6595 166.5,54.5C 166.5,56.5 166.5,58.5 166.5,60.5C 162.691,59.8232 159.858,61.1565 158,64.5C 156.2,63.6805 154.366,63.0138 152.5,62.5C 146.76,55.2885 139.426,50.1219 130.5,47C 127.854,46.5026 125.187,46.3359 122.5,46.5C 122.389,45.8826 122.056,45.3826 121.5,45C 117.848,44.5014 114.182,44.3347 110.5,44.5C 116.987,43.346 123.654,43.1794 130.5,44C 133.365,46.2863 136.698,47.1197 140.5,46.5C 140.5,44.8333 140.5,43.1667 140.5,41.5C 144.767,41.797 148.934,41.4637 153,40.5C 153.318,36.8046 153.818,33.1379 154.5,29.5C 151.897,26.5646 151.897,23.7313 154.5,21C 152.121,20.2838 150.121,19.1172 148.5,17.5 Z"/></g>
<g><path style="opacity:0.984" fill="#2d4e75" d="M 68.5,25.5 C 64.4656,31.5344 59.4656,36.5344 53.5,40.5C 55.1667,37.8333 56.8333,35.1667 58.5,32.5C 61.8514,30.1414 65.1847,27.8081 68.5,25.5 Z"/></g>
<g><path style="opacity:0.424" fill="#6b88a7" d="M 50.5,43.5 C 50.573,45.0269 49.9063,46.0269 48.5,46.5C 48.427,44.9731 49.0937,43.9731 50.5,43.5 Z"/></g>
<g><path style="opacity:0.302" fill="#88a2bb" d="M 108.5,45.5 C 107.5,46.1667 106.5,46.8333 105.5,47.5C 105.167,47.5 104.833,47.5 104.5,47.5C 103.167,47.5 101.833,47.5 100.5,47.5C 102.838,45.9605 105.505,45.2938 108.5,45.5 Z"/></g>
<g><path style="opacity:0.014" fill="#d0dde9" d="M 110.5,44.5 C 114.182,44.3347 117.848,44.5014 121.5,45C 122.056,45.3826 122.389,45.8826 122.5,46.5C 116.804,46.447 111.138,46.7803 105.5,47.5C 106.5,46.8333 107.5,46.1667 108.5,45.5C 108.842,44.6618 109.508,44.3284 110.5,44.5 Z"/></g>
<g><path style="opacity:0.996" fill="#024777" d="M 179.5,46.5 C 179.369,47.2389 179.536,47.9056 180,48.5C 181.011,47.6634 182.178,47.33 183.5,47.5C 183.5,49.5 183.5,51.5 183.5,53.5C 182.5,53.5 181.5,53.5 180.5,53.5C 180.579,54.9305 180.246,56.2638 179.5,57.5C 182.132,58.2569 184.632,58.5902 187,58.5C 187.21,59.8029 187.043,61.1362 186.5,62.5C 187.817,65.4224 189.15,67.589 190.5,69C 189.886,70.5366 189.886,71.87 190.5,73C 189.667,73.1667 188.833,73.3333 188,73.5C 186.158,71.8395 183.991,70.8395 181.5,70.5C 181.539,72.3588 180.706,73.6921 179,74.5C 178.501,78.1516 178.335,81.8183 178.5,85.5C 174.233,85.797 170.066,85.4637 166,84.5C 163.878,85.2199 163.378,86.3866 164.5,88C 164,88.5 163.5,89 163,89.5C 161.921,86.9373 161.421,84.2706 161.5,81.5C 162.5,81.5 163.5,81.5 164.5,81.5C 164.813,78.7531 164.48,76.0865 163.5,73.5C 162.833,75.1667 162.167,76.8333 161.5,78.5C 160.817,78.1373 160.15,77.8039 159.5,77.5C 157.9,75.2974 156.567,72.964 155.5,70.5C 154.89,69.609 154.557,68.609 154.5,67.5C 154.573,65.9731 153.906,64.9731 152.5,64.5C 152.5,63.8333 152.5,63.1667 152.5,62.5C 154.366,63.0138 156.2,63.6805 158,64.5C 159.858,61.1565 162.691,59.8232 166.5,60.5C 166.5,58.5 166.5,56.5 166.5,54.5C 171.323,54.6595 175.656,53.4928 179.5,51C 177.312,49.1518 177.312,47.6518 179.5,46.5 Z"/></g>
<g><path style="opacity:0.475" fill="#b6cddc" d="M 122.5,46.5 C 125.187,46.3359 127.854,46.5026 130.5,47C 139.426,50.1219 146.76,55.2885 152.5,62.5C 152.5,63.1667 152.5,63.8333 152.5,64.5C 151.5,63.8333 150.5,63.1667 149.5,62.5C 142.126,54.317 133.126,48.9836 122.5,46.5 Z"/></g>
<g><path style="opacity:0.157" fill="#cfdfea" d="M 58.5,32.5 C 56.8333,35.1667 55.1667,37.8333 53.5,40.5C 52.1667,41.1667 51.1667,42.1667 50.5,43.5C 49.0937,43.9731 48.427,44.9731 48.5,46.5C 45.7895,50.9563 43.4561,55.6229 41.5,60.5C 36.1823,75.1101 35.1823,90.1101 38.5,105.5C 38.2594,107.898 38.9261,109.898 40.5,111.5C 40.8333,112.833 41.1667,114.167 41.5,115.5C 41.5,116.833 41.5,118.167 41.5,119.5C 31.2981,95.4871 32.4648,71.8205 45,48.5C 48.6378,43.5215 52.3045,38.5215 56,33.5C 56.6708,32.7476 57.5041,32.4142 58.5,32.5 Z"/></g>
<g><path style="opacity:0.047" fill="#d2e2eb" d="M 100.5,47.5 C 101.833,47.5 103.167,47.5 104.5,47.5C 76.6067,60.632 68.44,81.632 80,110.5C 85.2529,118.01 91.7529,124.01 99.5,128.5C 97.4352,128.483 95.4352,128.15 93.5,127.5C 83.7111,119.732 76.7111,110.066 72.5,98.5C 72.3337,91.4921 72.5004,84.4921 73,77.5C 74.9959,74.0919 76.1626,70.4252 76.5,66.5C 80.6023,61.8954 84.9357,57.3954 89.5,53C 92.8218,50.4247 96.4885,48.5913 100.5,47.5 Z"/></g>
<g><path style="opacity:0.922" fill="#5c87a3" d="M 190.5,61.5 C 192.31,64.145 193.31,67.145 193.5,70.5C 191.528,67.9164 190.528,64.9164 190.5,61.5 Z"/></g>
<g><path style="opacity:0.42" fill="#83a8c0" d="M 152.5,64.5 C 153.906,64.9731 154.573,65.9731 154.5,67.5C 153.094,67.0269 152.427,66.0269 152.5,64.5 Z"/></g>
<g><path style="opacity:0.011" fill="#f3f9fb" d="M 149.5,62.5 C 150.5,63.1667 151.5,63.8333 152.5,64.5C 152.427,66.0269 153.094,67.0269 154.5,67.5C 154.557,68.609 154.89,69.609 155.5,70.5C 155.5,71.5 155.5,72.5 155.5,73.5C 153.264,70.033 151.264,66.3663 149.5,62.5 Z"/></g>
<g><path style="opacity:0.996" fill="#044e7c" d="M 178.5,40.5 C 180.55,42.2368 182.383,44.2368 184,46.5C 185.72,51.7484 187.887,56.7484 190.5,61.5C 190.528,64.9164 191.528,67.9164 193.5,70.5C 193.5,70.8333 193.5,71.1667 193.5,71.5C 194.218,80.4818 194.552,89.4818 194.5,98.5C 194.661,102.723 193.994,106.723 192.5,110.5C 191.5,110.833 190.833,111.5 190.5,112.5C 189.844,111.722 189.011,111.056 188,110.5C 185.865,111.127 183.698,111.627 181.5,112C 181.07,112.92 180.736,113.753 180.5,114.5C 179.808,113.975 179.308,113.308 179,112.5C 178.506,114.134 178.34,115.801 178.5,117.5C 174.481,117.646 170.481,117.979 166.5,118.5C 166.739,120.467 166.406,122.301 165.5,124C 158.56,123.005 152.893,125.005 148.5,130C 147.167,130.667 145.833,130.667 144.5,130C 145.34,128.334 144.84,128.167 143,129.5C 142.383,128.551 142.549,127.718 143.5,127C 142.833,126.667 142.167,126.333 141.5,126C 143.291,125.585 144.624,124.585 145.5,123C 147.464,122.376 149.131,122.876 150.5,124.5C 151.885,123.449 152.885,122.116 153.5,120.5C 152.268,118.95 151.768,117.283 152,115.5C 153.562,115.741 155.062,115.241 156.5,114C 155.244,113.583 154.577,112.75 154.5,111.5C 155.833,107.833 157.167,104.167 158.5,100.5C 160.775,92.9604 161.109,85.2937 159.5,77.5C 160.15,77.8039 160.817,78.1373 161.5,78.5C 162.167,76.8333 162.833,75.1667 163.5,73.5C 164.48,76.0865 164.813,78.7531 164.5,81.5C 163.5,81.5 162.5,81.5 161.5,81.5C 161.421,84.2706 161.921,86.9373 163,89.5C 163.5,89 164,88.5 164.5,88C 163.378,86.3866 163.878,85.2199 166,84.5C 170.066,85.4637 174.233,85.797 178.5,85.5C 178.335,81.8183 178.501,78.1516 179,74.5C 180.706,73.6921 181.539,72.3588 181.5,70.5C 183.991,70.8395 186.158,71.8395 188,73.5C 188.833,73.3333 189.667,73.1667 190.5,73C 189.886,71.87 189.886,70.5366 190.5,69C 189.15,67.589 187.817,65.4224 186.5,62.5C 187.043,61.1362 187.21,59.8029 187,58.5C 184.632,58.5902 182.132,58.2569 179.5,57.5C 180.246,56.2638 180.579,54.9305 180.5,53.5C 181.5,53.5 182.5,53.5 183.5,53.5C 183.5,51.5 183.5,49.5 183.5,47.5C 182.178,47.33 181.011,47.6634 180,48.5C 179.536,47.9056 179.369,47.2389 179.5,46.5C 179.483,44.4352 179.15,42.4352 178.5,40.5 Z"/></g>
<g><path style="opacity:0.996" fill="#0a4374" d="M 41.5,60.5 C 41.665,63.8499 41.4983,67.1832 41,70.5C 38.5231,79.5986 37.8564,88.9319 39,98.5C 42.6214,98.6425 46.4547,98.6425 50.5,98.5C 50.5,96.5 50.5,94.5 50.5,92.5C 52.8333,92.5 55.1667,92.5 57.5,92.5C 57.5,90.5 57.5,88.5 57.5,86.5C 59.5,86.5 61.5,86.5 63.5,86.5C 63.3433,85.1266 63.51,83.7932 64,82.5C 64.8928,83.7112 65.7261,83.7112 66.5,82.5C 67.1805,80.1111 68.0138,77.7778 69,75.5C 69.6667,76.1667 70.3333,76.8333 71,77.5C 72.2457,74.6392 73.2457,71.6392 74,68.5C 74.4169,67.244 75.2502,66.5774 76.5,66.5C 76.1626,70.4252 74.9959,74.0919 73,77.5C 72.5004,84.4921 72.3337,91.4921 72.5,98.5C 72.2739,101.249 72.6072,103.916 73.5,106.5C 72.4825,107.852 71.1492,108.852 69.5,109.5C 69.7093,110.086 70.0426,110.586 70.5,111C 64.5279,110.138 62.1945,112.638 63.5,118.5C 61.5,118.5 59.5,118.5 57.5,118.5C 57.7394,120.467 57.4061,122.301 56.5,124C 54.236,124.236 52.0693,124.736 50,125.5C 49.6758,123.431 48.8425,123.098 47.5,124.5C 46.8944,121.66 45.5611,119.327 43.5,117.5C 42.8333,116.833 42.1667,116.167 41.5,115.5C 41.1667,114.167 40.8333,112.833 40.5,111.5C 40.405,109.214 39.7384,107.214 38.5,105.5C 35.1823,90.1101 36.1823,75.1101 41.5,60.5 Z"/></g>
<g><path style="opacity:0.012" fill="#cedfea" d="M 155.5,70.5 C 156.567,72.964 157.9,75.2974 159.5,77.5C 161.109,85.2937 160.775,92.9604 158.5,100.5C 157.609,101.11 156.609,101.443 155.5,101.5C 158.095,92.192 158.095,82.8587 155.5,73.5C 155.5,72.5 155.5,71.5 155.5,70.5 Z"/></g>
<g><path style="opacity:0.702" fill="#6791a8" d="M 193.5,71.5 C 195.052,76.4009 195.719,81.5676 195.5,87C 195.499,91.0152 195.165,94.8485 194.5,98.5C 194.552,89.4818 194.218,80.4818 193.5,71.5 Z"/></g>
<g><path style="opacity:0.016" fill="#e2eff4" d="M 163.5,22.5 C 193.996,46.4863 204.162,77.153 194,114.5C 189.272,124.956 184.272,135.289 179,145.5C 178.749,147.433 178.249,149.266 177.5,151C 178.244,152.815 178.911,154.648 179.5,156.5C 178.833,156.5 178.167,156.5 177.5,156.5C 176.883,156.389 176.383,156.056 176,155.5C 175.833,153.833 175.667,152.167 175.5,150.5C 175.973,146.974 176.973,143.641 178.5,140.5C 181.306,133.554 184.639,126.888 188.5,120.5C 190.729,117.646 192.062,114.313 192.5,110.5C 193.994,106.723 194.661,102.723 194.5,98.5C 195.165,94.8485 195.499,91.0152 195.5,87C 195.719,81.5676 195.052,76.4009 193.5,71.5C 193.5,71.1667 193.5,70.8333 193.5,70.5C 193.31,67.145 192.31,64.145 190.5,61.5C 187.887,56.7484 185.72,51.7484 184,46.5C 182.383,44.2368 180.55,42.2368 178.5,40.5C 177.952,38.6064 176.952,36.9397 175.5,35.5C 171.454,31.7831 167.454,28.1165 163.5,24.5C 163.5,23.8333 163.5,23.1667 163.5,22.5 Z"/></g>
<g><path style="opacity:0.345" fill="#688aa5" d="M 38.5,105.5 C 39.7384,107.214 40.405,109.214 40.5,111.5C 38.9261,109.898 38.2594,107.898 38.5,105.5 Z"/></g>
<g><path style="opacity:0.996" fill="#074978" d="M 72.5,98.5 C 76.7111,110.066 83.7111,119.732 93.5,127.5C 94.292,129.257 95.6253,130.591 97.5,131.5C 94.7446,131.612 92.0779,132.112 89.5,133C 88.8333,134.333 88.1667,135.667 87.5,137C 81.8333,137.333 76.1667,137.667 70.5,138C 74.9182,138.238 76.7515,140.405 76,144.5C 74.6667,143.833 73.3333,143.167 72,142.5C 70.3149,144.017 68.8149,145.684 67.5,147.5C 65.8849,146.846 64.2182,146.346 62.5,146C 61.6634,144.989 61.33,143.822 61.5,142.5C 60.1667,142.5 58.8333,142.5 57.5,142.5C 54.9015,138.562 51.9015,134.895 48.5,131.5C 47.2122,129.261 46.2122,126.928 45.5,124.5C 44.5448,122.254 43.8782,119.921 43.5,117.5C 45.5611,119.327 46.8944,121.66 47.5,124.5C 48.8425,123.098 49.6758,123.431 50,125.5C 52.0693,124.736 54.236,124.236 56.5,124C 57.4061,122.301 57.7394,120.467 57.5,118.5C 59.5,118.5 61.5,118.5 63.5,118.5C 62.1945,112.638 64.5279,110.138 70.5,111C 70.0426,110.586 69.7093,110.086 69.5,109.5C 71.1492,108.852 72.4825,107.852 73.5,106.5C 72.6072,103.916 72.2739,101.249 72.5,98.5 Z"/></g>
<g><path style="opacity:0.094" fill="#c4d9e5" d="M 158.5,100.5 C 157.167,104.167 155.833,107.833 154.5,111.5C 150.78,115.724 146.78,119.891 142.5,124C 140.593,125.122 138.593,125.955 136.5,126.5C 140.876,123.204 145.042,119.537 149,115.5C 151.999,111.172 154.166,106.505 155.5,101.5C 156.609,101.443 157.609,101.11 158.5,100.5 Z"/></g>
<g><path style="opacity:0.996" fill="#04547f" d="M 190.5,112.5 C 190.037,115.221 189.371,117.888 188.5,120.5C 184.639,126.888 181.306,133.554 178.5,140.5C 176.833,141.5 175.5,142.833 174.5,144.5C 173.178,144.33 172.011,144.663 171,145.5C 170.417,143.998 169.584,142.665 168.5,141.5C 167.074,143.937 165.741,146.437 164.5,149C 165.167,149.667 165.833,150.333 166.5,151C 162.254,150.633 157.92,150.467 153.5,150.5C 153.5,151.5 153.5,152.5 153.5,153.5C 149.5,153.5 145.5,153.5 141.5,153.5C 141.216,156.254 140.549,158.92 139.5,161.5C 136.891,162.23 134.224,162.73 131.5,163C 134.991,164.599 138.491,164.766 142,163.5C 143.046,165.09 144.213,166.59 145.5,168C 131.94,166.813 118.273,166.313 104.5,166.5C 100.462,166.042 96.4616,165.376 92.5,164.5C 90.9582,163.699 89.2915,163.366 87.5,163.5C 86.1007,162.11 84.4341,161.11 82.5,160.5C 81.8333,160.5 81.1667,160.5 80.5,160.5C 79.3126,158.025 77.3126,157.025 74.5,157.5C 74.0269,156.094 73.0269,155.427 71.5,155.5C 71.5,155.167 71.5,154.833 71.5,154.5C 76.8944,155.914 82.2277,157.581 87.5,159.5C 87.2907,160.086 86.9574,160.586 86.5,161C 89.2241,161.27 91.8908,161.77 94.5,162.5C 95.4656,160.604 95.7989,158.604 95.5,156.5C 97.5,156.5 99.5,156.5 101.5,156.5C 101.261,154.533 101.594,152.699 102.5,151C 108.835,150.444 115.168,149.944 121.5,149.5C 121.5,147.5 121.5,145.5 121.5,143.5C 123.5,143.5 125.5,143.5 127.5,143.5C 127.5,141.5 127.5,139.5 127.5,137.5C 124.746,137.887 122.246,138.221 120,138.5C 117.904,137.285 118.071,136.451 120.5,136C 119.167,135.333 119.167,134.667 120.5,134C 116.312,133.824 112.312,133.324 108.5,132.5C 113.844,132.666 119.177,132.499 124.5,132C 127.374,131.058 130.04,129.891 132.5,128.5C 134.38,128.771 135.713,128.104 136.5,126.5C 138.593,125.955 140.593,125.122 142.5,124C 146.78,119.891 150.78,115.724 154.5,111.5C 154.577,112.75 155.244,113.583 156.5,114C 155.062,115.241 153.562,115.741 152,115.5C 151.768,117.283 152.268,118.95 153.5,120.5C 152.885,122.116 151.885,123.449 150.5,124.5C 149.131,122.876 147.464,122.376 145.5,123C 144.624,124.585 143.291,125.585 141.5,126C 142.167,126.333 142.833,126.667 143.5,127C 142.549,127.718 142.383,128.551 143,129.5C 144.84,128.167 145.34,128.334 144.5,130C 145.833,130.667 147.167,130.667 148.5,130C 152.893,125.005 158.56,123.005 165.5,124C 166.406,122.301 166.739,120.467 166.5,118.5C 170.481,117.979 174.481,117.646 178.5,117.5C 178.34,115.801 178.506,114.134 179,112.5C 179.308,113.308 179.808,113.975 180.5,114.5C 180.736,113.753 181.07,112.92 181.5,112C 183.698,111.627 185.865,111.127 188,110.5C 189.011,111.056 189.844,111.722 190.5,112.5 Z"/></g>
<g><path style="opacity:0.753" fill="#6791aa" d="M 192.5,110.5 C 192.062,114.313 190.729,117.646 188.5,120.5C 189.371,117.888 190.037,115.221 190.5,112.5C 190.833,111.5 191.5,110.833 192.5,110.5 Z"/></g>
<g><path style="opacity:0.208" fill="#7a9bb2" d="M 41.5,115.5 C 42.1667,116.167 42.8333,116.833 43.5,117.5C 43.8782,119.921 44.5448,122.254 45.5,124.5C 44.8333,124.5 44.1667,124.5 43.5,124.5C 43.5979,122.447 42.9313,120.78 41.5,119.5C 41.5,118.167 41.5,116.833 41.5,115.5 Z"/></g>
<g><path style="opacity:0.022" fill="#eef6fa" d="M 41.5,119.5 C 42.9313,120.78 43.5979,122.447 43.5,124.5C 42.0687,123.22 41.4021,121.553 41.5,119.5 Z"/></g>
<g><path style="opacity:0.086" fill="#cce1e9" d="M 214.5,124.5 C 211.423,124.273 208.59,123.273 206,121.5C 204.251,121.748 203.418,122.748 203.5,124.5C 201.369,130.764 198.202,136.43 194,141.5C 193.235,143.066 193.402,144.399 194.5,145.5C 194.833,146.167 195.167,146.833 195.5,147.5C 192.045,146.872 190.878,144.872 192,141.5C 196.189,135.123 199.855,128.456 203,121.5C 207.372,120.261 211.206,121.261 214.5,124.5 Z"/></g>
<g><path style="opacity:0.996" fill="#095780" d="M 217.5,127.5 C 218.167,127.833 218.833,128.167 219.5,128.5C 219.369,129.239 219.536,129.906 220,130.5C 221.586,131.376 223.086,132.376 224.5,133.5C 223.289,134.72 223.289,135.887 224.5,137C 223.484,138.677 222.484,140.343 221.5,142C 222.871,144.319 223.538,146.819 223.5,149.5C 224.822,149.33 225.989,149.663 227,150.5C 231.633,158.558 234.799,167.225 236.5,176.5C 236.406,178.923 235.906,181.256 235,183.5C 234.8,181.68 233.966,180.347 232.5,179.5C 227.757,168.324 220.424,159.324 210.5,152.5C 205.694,149.1 200.36,146.767 194.5,145.5C 193.402,144.399 193.235,143.066 194,141.5C 198.202,136.43 201.369,130.764 203.5,124.5C 204.265,124.077 205.098,123.743 206,123.5C 209.601,125.553 213.435,126.887 217.5,127.5 Z"/></g>
<g><path style="opacity:0.996" fill="#386d8b" d="M 214.5,124.5 C 215.694,125.272 216.694,126.272 217.5,127.5C 213.435,126.887 209.601,125.553 206,123.5C 205.098,123.743 204.265,124.077 203.5,124.5C 203.418,122.748 204.251,121.748 206,121.5C 208.59,123.273 211.423,124.273 214.5,124.5 Z"/></g>
<g><path style="opacity:0.071" fill="#cfe4ef" d="M 136.5,126.5 C 135.713,128.104 134.38,128.771 132.5,128.5C 133.514,127.326 134.847,126.66 136.5,126.5 Z"/></g>
<g><path style="opacity:0.188" fill="#abc9d7" d="M 214.5,124.5 C 218.392,125.446 222.059,126.946 225.5,129C 227.093,129.949 228.426,131.115 229.5,132.5C 229.833,133.167 230.167,133.833 230.5,134.5C 226.856,132.538 223.189,130.538 219.5,128.5C 218.833,128.167 218.167,127.833 217.5,127.5C 216.694,126.272 215.694,125.272 214.5,124.5 Z"/></g>
<g><path style="opacity:0.604" fill="#b0ccd8" d="M 99.5,128.5 C 104.902,130.023 110.402,131.023 116,131.5C 121.604,131.02 127.104,130.02 132.5,128.5C 130.04,129.891 127.374,131.058 124.5,132C 119.177,132.499 113.844,132.666 108.5,132.5C 105.345,131.558 102.345,130.224 99.5,128.5 Z"/></g>
<g><path style="opacity:0.996" fill="#024f7c" d="M 93.5,127.5 C 95.4352,128.15 97.4352,128.483 99.5,128.5C 102.345,130.224 105.345,131.558 108.5,132.5C 112.312,133.324 116.312,133.824 120.5,134C 119.167,134.667 119.167,135.333 120.5,136C 118.071,136.451 117.904,137.285 120,138.5C 122.246,138.221 124.746,137.887 127.5,137.5C 127.5,139.5 127.5,141.5 127.5,143.5C 125.5,143.5 123.5,143.5 121.5,143.5C 121.5,145.5 121.5,147.5 121.5,149.5C 115.168,149.944 108.835,150.444 102.5,151C 101.594,152.699 101.261,154.533 101.5,156.5C 99.5,156.5 97.5,156.5 95.5,156.5C 95.7989,158.604 95.4656,160.604 94.5,162.5C 91.8908,161.77 89.2241,161.27 86.5,161C 86.9574,160.586 87.2907,160.086 87.5,159.5C 82.2277,157.581 76.8944,155.914 71.5,154.5C 66.7528,150.48 62.0862,146.48 57.5,142.5C 58.8333,142.5 60.1667,142.5 61.5,142.5C 61.33,143.822 61.6634,144.989 62.5,146C 64.2182,146.346 65.8849,146.846 67.5,147.5C 68.8149,145.684 70.3149,144.017 72,142.5C 73.3333,143.167 74.6667,143.833 76,144.5C 76.7515,140.405 74.9182,138.238 70.5,138C 76.1667,137.667 81.8333,137.333 87.5,137C 88.1667,135.667 88.8333,134.333 89.5,133C 92.0779,132.112 94.7446,131.612 97.5,131.5C 95.6253,130.591 94.292,129.257 93.5,127.5 Z"/></g>
<g><path style="opacity:0.075" fill="#bfd5e2" d="M 43.5,124.5 C 44.1667,124.5 44.8333,124.5 45.5,124.5C 46.2122,126.928 47.2122,129.261 48.5,131.5C 51.9015,134.895 54.9015,138.562 57.5,142.5C 62.0862,146.48 66.7528,150.48 71.5,154.5C 71.5,154.833 71.5,155.167 71.5,155.5C 60.8999,149.401 52.3999,141.067 46,130.5C 44.878,128.593 44.0447,126.593 43.5,124.5 Z"/></g>
<g><path style="opacity:0.047" fill="#d9ecf2" d="M 229.5,132.5 C 234.813,135.481 239.146,139.481 242.5,144.5C 238.202,141.537 234.202,138.203 230.5,134.5C 230.167,133.833 229.833,133.167 229.5,132.5 Z"/></g>
<g><path style="opacity:0.996" fill="#055b81" d="M 174.5,144.5 C 174.666,148.846 174.499,153.179 174,157.5C 171.887,159.271 172.053,160.771 174.5,162C 172.544,161.778 170.71,160.945 169,159.5C 169.029,161.932 167.862,164.098 165.5,166C 161.514,166.499 157.514,166.666 153.5,166.5C 152.768,169.02 151.602,171.354 150,173.5C 149,172.167 148,170.833 147,169.5C 146.184,170.823 145.017,171.489 143.5,171.5C 142.081,170.549 140.415,170.216 138.5,170.5C 135.877,168.735 132.877,168.068 129.5,168.5C 121.167,167.833 112.833,167.167 104.5,166.5C 118.273,166.313 131.94,166.813 145.5,168C 144.213,166.59 143.046,165.09 142,163.5C 138.491,164.766 134.991,164.599 131.5,163C 134.224,162.73 136.891,162.23 139.5,161.5C 140.549,158.92 141.216,156.254 141.5,153.5C 145.5,153.5 149.5,153.5 153.5,153.5C 153.5,152.5 153.5,151.5 153.5,150.5C 157.92,150.467 162.254,150.633 166.5,151C 165.833,150.333 165.167,149.667 164.5,149C 165.741,146.437 167.074,143.937 168.5,141.5C 169.584,142.665 170.417,143.998 171,145.5C 172.011,144.663 173.178,144.33 174.5,144.5 Z"/></g>
<g><path style="opacity:0.996" fill="#066588" d="M 219.5,128.5 C 223.189,130.538 226.856,132.538 230.5,134.5C 234.202,138.203 238.202,141.537 242.5,144.5C 243.429,147.412 244.762,150.079 246.5,152.5C 246.343,153.873 246.51,155.207 247,156.5C 249.08,158.993 250.914,161.659 252.5,164.5C 250.922,165.298 249.256,165.798 247.5,166C 246.33,168.185 245.164,170.351 244,172.5C 242.312,171.675 242.145,170.675 243.5,169.5C 242.758,168.713 241.925,168.047 241,167.5C 240.018,170.94 238.851,174.273 237.5,177.5C 237.529,179.029 238.196,180.196 239.5,181C 238.512,184.745 237.845,188.578 237.5,192.5C 237.784,194.415 237.451,196.081 236.5,197.5C 236.784,195.585 236.451,193.919 235.5,192.5C 234.707,188.12 233.707,183.787 232.5,179.5C 233.966,180.347 234.8,181.68 235,183.5C 235.906,181.256 236.406,178.923 236.5,176.5C 234.799,167.225 231.633,158.558 227,150.5C 225.989,149.663 224.822,149.33 223.5,149.5C 223.538,146.819 222.871,144.319 221.5,142C 222.484,140.343 223.484,138.677 224.5,137C 223.289,135.887 223.289,134.72 224.5,133.5C 223.086,132.376 221.586,131.376 220,130.5C 219.536,129.906 219.369,129.239 219.5,128.5 Z"/></g>
<g><path style="opacity:0.133" fill="#96bdcc" d="M 194.5,145.5 C 200.36,146.767 205.694,149.1 210.5,152.5C 209.833,152.5 209.167,152.5 208.5,152.5C 204.277,150.556 199.944,148.889 195.5,147.5C 195.167,146.833 194.833,146.167 194.5,145.5 Z"/></g>
<g><path style="opacity:0.051" fill="#bbedf1" d="M 71.5,155.5 C 73.0269,155.427 74.0269,156.094 74.5,157.5C 72.9731,157.573 71.9731,156.906 71.5,155.5 Z"/></g>
<g><path style="opacity:0.996" fill="#046185" d="M 178.5,140.5 C 176.973,143.641 175.973,146.974 175.5,150.5C 175.667,152.167 175.833,153.833 176,155.5C 176.383,156.056 176.883,156.389 177.5,156.5C 177.611,157.117 177.944,157.617 178.5,158C 185.246,159.353 191.913,161.02 198.5,163C 199.056,163.383 199.389,163.883 199.5,164.5C 198.928,166.255 198.094,167.922 197,169.5C 195.301,168.594 193.467,168.261 191.5,168.5C 191.5,169.5 191.5,170.5 191.5,171.5C 194.016,171.755 196.35,172.589 198.5,174C 196.782,174.346 195.115,174.846 193.5,175.5C 192.148,174.104 190.481,173.437 188.5,173.5C 185.581,174.64 182.581,175.473 179.5,176C 178.663,177.011 178.33,178.178 178.5,179.5C 176.5,179.5 174.5,179.5 172.5,179.5C 172.5,182.5 172.5,185.5 172.5,188.5C 166.167,188.5 159.833,188.5 153.5,188.5C 153.813,191.247 153.48,193.914 152.5,196.5C 151.38,195.167 150.047,194.667 148.5,195C 149.406,196.699 149.739,198.533 149.5,200.5C 147.052,200.915 145.719,199.915 145.5,197.5C 145.818,196.353 146.484,195.519 147.5,195C 146.584,194.722 145.918,194.222 145.5,193.5C 146.391,192.739 147.058,191.739 147.5,190.5C 145.829,188.49 145.162,186.157 145.5,183.5C 147.378,179.026 146.711,175.026 143.5,171.5C 145.017,171.489 146.184,170.823 147,169.5C 148,170.833 149,172.167 150,173.5C 151.602,171.354 152.768,169.02 153.5,166.5C 157.514,166.666 161.514,166.499 165.5,166C 167.862,164.098 169.029,161.932 169,159.5C 170.71,160.945 172.544,161.778 174.5,162C 172.053,160.771 171.887,159.271 174,157.5C 174.499,153.179 174.666,148.846 174.5,144.5C 175.5,142.833 176.833,141.5 178.5,140.5 Z"/></g>
<g><path style="opacity:0.145" fill="#b4d5df" d="M 177.5,156.5 C 178.167,156.5 178.833,156.5 179.5,156.5C 185.884,157.786 192.218,159.286 198.5,161C 201.621,162.306 204.287,164.14 206.5,166.5C 207.167,167.5 207.833,168.5 208.5,169.5C 208.167,169.5 207.833,169.5 207.5,169.5C 205.142,167.322 202.475,165.655 199.5,164.5C 199.389,163.883 199.056,163.383 198.5,163C 191.913,161.02 185.246,159.353 178.5,158C 177.944,157.617 177.611,157.117 177.5,156.5 Z"/></g>
<g><path style="opacity:0.376" fill="#a6c2d1" d="M 74.5,157.5 C 77.3126,157.025 79.3126,158.025 80.5,160.5C 77.911,160.539 75.911,159.539 74.5,157.5 Z"/></g>
<g><path style="opacity:0.035" fill="#d9e3e7" d="M 80.5,160.5 C 81.1667,160.5 81.8333,160.5 82.5,160.5C 82.8333,161.167 83.1667,161.833 83.5,162.5C 81.9731,162.573 80.9731,161.906 80.5,160.5 Z"/></g>
<g><path style="opacity:0.996" fill="#04557f" d="M 52.5,158.5 C 57.7846,163.81 63.7846,168.144 70.5,171.5C 73.0195,174.017 76.0195,175.683 79.5,176.5C 80.4687,177.309 81.3021,178.309 82,179.5C 84.4321,178.55 86.9321,178.55 89.5,179.5C 90.8333,179.833 92.1667,180.167 93.5,180.5C 95.9052,181.768 98.5718,182.435 101.5,182.5C 110.146,183.253 118.812,183.587 127.5,183.5C 128.139,184.097 128.472,184.93 128.5,186C 126.574,191.699 126.074,197.533 127,203.5C 128.077,209.429 129.577,215.096 131.5,220.5C 131.755,222.967 132.755,224.967 134.5,226.5C 135.488,227.795 136.488,229.128 137.5,230.5C 137.721,235.062 136.221,235.728 133,232.5C 132.915,234.085 132.749,235.418 132.5,236.5C 128.59,234.099 125.09,231.099 122,227.5C 119.745,222.086 116.745,217.086 113,212.5C 112.284,209.28 111.117,206.28 109.5,203.5C 108.228,204.046 106.894,204.379 105.5,204.5C 95.7156,202.786 85.8823,201.453 76,200.5C 71.4565,200.467 67.4565,201.801 64,204.5C 63.5172,203.552 63.3505,202.552 63.5,201.5C 61.1667,201.5 58.8333,201.5 56.5,201.5C 55.6337,205.886 54.467,210.219 53,214.5C 52.8238,210.312 52.3238,206.312 51.5,202.5C 51.1707,187.657 51.504,172.99 52.5,158.5 Z"/></g>
<g><path style="opacity:0.227" fill="#95aecb" d="M 82.5,160.5 C 84.4341,161.11 86.1007,162.11 87.5,163.5C 85.901,163.768 84.5676,163.434 83.5,162.5C 83.1667,161.833 82.8333,161.167 82.5,160.5 Z"/></g>
<g><path style="opacity:0.588" fill="#9dbdd4" d="M 87.5,163.5 C 89.2915,163.366 90.9582,163.699 92.5,164.5C 93.5,165.167 94.5,165.833 95.5,166.5C 92.3511,166.585 89.6845,165.585 87.5,163.5 Z"/></g>
<g><path style="opacity:0.996" fill="#066e8d" d="M 246.5,152.5 C 247.458,152.953 248.292,153.619 249,154.5C 250.699,159.118 252.866,163.451 255.5,167.5C 255.5,168.167 255.5,168.833 255.5,169.5C 256.415,174.776 256.582,180.109 256,185.5C 253.936,184.409 251.769,184.242 249.5,185C 248.663,186.011 248.33,187.178 248.5,188.5C 246.143,188.337 243.81,188.503 241.5,189C 240.897,190.825 240.23,192.659 239.5,194.5C 238.818,193.757 238.151,193.091 237.5,192.5C 237.845,188.578 238.512,184.745 239.5,181C 238.196,180.196 237.529,179.029 237.5,177.5C 238.851,174.273 240.018,170.94 241,167.5C 241.925,168.047 242.758,168.713 243.5,169.5C 242.145,170.675 242.312,171.675 244,172.5C 245.164,170.351 246.33,168.185 247.5,166C 249.256,165.798 250.922,165.298 252.5,164.5C 250.914,161.659 249.08,158.993 247,156.5C 246.51,155.207 246.343,153.873 246.5,152.5 Z"/></g>
<g><path style="opacity:0.445" fill="#5790ab" d="M 52.5,158.5 C 51.504,172.99 51.1707,187.657 51.5,202.5C 51.5,211.833 51.5,221.167 51.5,230.5C 51.5,237.167 51.5,243.833 51.5,250.5C 51.5,251.167 51.5,251.833 51.5,252.5C 50.1701,220.997 50.1701,189.331 51.5,157.5C 52.1067,157.624 52.44,157.957 52.5,158.5 Z"/></g>
<g><path style="opacity:0.481" fill="#8bb0c3" d="M 92.5,164.5 C 96.4616,165.376 100.462,166.042 104.5,166.5C 112.833,167.167 121.167,167.833 129.5,168.5C 123.167,168.5 116.833,168.5 110.5,168.5C 105.29,168.392 100.29,167.725 95.5,166.5C 94.5,165.833 93.5,165.167 92.5,164.5 Z"/></g>
<g><path style="opacity:0.996" fill="#016588" d="M 199.5,164.5 C 202.475,165.655 205.142,167.322 207.5,169.5C 207.227,171.451 207.893,172.951 209.5,174C 207.117,175.8 205.45,178.133 204.5,181C 200.179,181.499 195.846,181.666 191.5,181.5C 191.5,183.833 191.5,186.167 191.5,188.5C 189.5,188.5 187.5,188.5 185.5,188.5C 185.5,190.5 185.5,192.5 185.5,194.5C 181.167,194.5 176.833,194.5 172.5,194.5C 172.5,196.5 172.5,198.5 172.5,200.5C 168.176,200.927 163.842,201.261 159.5,201.5C 159.5,203.5 159.5,205.5 159.5,207.5C 156.833,207.5 154.167,207.5 151.5,207.5C 150.82,210.062 150.653,212.729 151,215.5C 149.286,216.925 147.953,216.592 147,214.5C 147.092,210.707 146.092,207.373 144,204.5C 143.171,199.467 143.338,194.467 144.5,189.5C 144.376,190.61 144.709,191.944 145.5,193.5C 145.918,194.222 146.584,194.722 147.5,195C 146.484,195.519 145.818,196.353 145.5,197.5C 145.719,199.915 147.052,200.915 149.5,200.5C 149.739,198.533 149.406,196.699 148.5,195C 150.047,194.667 151.38,195.167 152.5,196.5C 153.48,193.914 153.813,191.247 153.5,188.5C 159.833,188.5 166.167,188.5 172.5,188.5C 172.5,185.5 172.5,182.5 172.5,179.5C 174.5,179.5 176.5,179.5 178.5,179.5C 178.33,178.178 178.663,177.011 179.5,176C 182.581,175.473 185.581,174.64 188.5,173.5C 190.481,173.437 192.148,174.104 193.5,175.5C 195.115,174.846 196.782,174.346 198.5,174C 196.35,172.589 194.016,171.755 191.5,171.5C 191.5,170.5 191.5,169.5 191.5,168.5C 193.467,168.261 195.301,168.594 197,169.5C 198.094,167.922 198.928,166.255 199.5,164.5 Z"/></g>
<g><path style="opacity:0.009" fill="#f2fbfd" d="M 110.5,168.5 C 116.833,168.5 123.167,168.5 129.5,168.5C 132.877,168.068 135.877,168.735 138.5,170.5C 129.023,169.912 119.69,169.245 110.5,168.5 Z"/></g>
<g><path style="opacity:0.333" fill="#9dc8d4" d="M 255.5,167.5 C 257.655,169.617 258.655,172.284 258.5,175.5C 257.5,173.5 256.5,171.5 255.5,169.5C 255.5,168.833 255.5,168.167 255.5,167.5 Z"/></g>
<g><path style="opacity:0.055" fill="#c6dfe9" d="M 83.5,175.5 C 82.4324,176.434 81.099,176.768 79.5,176.5C 76.9922,174.076 73.9922,172.41 70.5,171.5C 63.7846,168.144 57.7846,163.81 52.5,158.5C 52.44,157.957 52.1067,157.624 51.5,157.5C 50.1701,189.331 50.1701,220.997 51.5,252.5C 51.2594,254.898 51.9261,256.898 53.5,258.5C 55.3535,262.221 57.6869,265.554 60.5,268.5C 60.5,269.167 60.5,269.833 60.5,270.5C 54.8374,266.655 51.3374,261.322 50,254.5C 49.8188,222.81 49.3188,191.144 48.5,159.5C 48.6082,158.558 48.9415,157.725 49.5,157C 51.1667,156.333 52.8333,156.333 54.5,157C 62.6293,165.645 72.296,171.812 83.5,175.5 Z"/></g>
<g><path style="opacity:0.086" fill="#bfd8e3" d="M 138.5,170.5 C 140.415,170.216 142.081,170.549 143.5,171.5C 146.711,175.026 147.378,179.026 145.5,183.5C 143.883,184.589 143.05,186.256 143,188.5C 142.501,193.823 142.334,199.156 142.5,204.5C 141.513,199.695 141.179,194.695 141.5,189.5C 142.083,185.414 143.083,181.414 144.5,177.5C 143.857,173.866 141.857,171.533 138.5,170.5 Z"/></g>
<g><path style="opacity:0.11" fill="#b9d6e3" d="M 208.5,152.5 C 209.167,152.5 209.833,152.5 210.5,152.5C 220.424,159.324 227.757,168.324 232.5,179.5C 233.707,183.787 234.707,188.12 235.5,192.5C 235.666,198.176 235.499,203.843 235,209.5C 234.722,210.416 234.222,211.082 233.5,211.5C 234.636,206.015 234.636,200.681 233.5,195.5C 231.586,177.326 223.253,162.993 208.5,152.5 Z"/></g>
<g><path style="opacity:0.996" fill="#07698a" d="M 207.5,169.5 C 207.833,169.5 208.167,169.5 208.5,169.5C 209.925,170.922 210.925,172.589 211.5,174.5C 212.601,178.746 214.268,182.079 216.5,184.5C 215.066,185.23 213.9,186.23 213,187.5C 212.389,183.728 211.389,183.728 210,187.5C 209.586,187.043 209.086,186.709 208.5,186.5C 207.481,187.687 206.314,188.687 205,189.5C 202.619,188.565 200.119,188.232 197.5,188.5C 197.5,190.5 197.5,192.5 197.5,194.5C 195.5,194.5 193.5,194.5 191.5,194.5C 191.5,195.833 191.5,197.167 191.5,198.5C 187.288,199.858 182.955,200.858 178.5,201.5C 178.739,203.467 178.406,205.301 177.5,207C 173.514,207.499 169.514,207.666 165.5,207.5C 165.5,208.5 165.5,209.5 165.5,210.5C 163.5,210.5 161.5,210.5 159.5,210.5C 159.5,212.833 159.5,215.167 159.5,217.5C 156.856,217.16 154.523,217.827 152.5,219.5C 151.264,218.754 149.93,218.421 148.5,218.5C 144.893,214.609 142.893,209.943 142.5,204.5C 142.334,199.156 142.501,193.823 143,188.5C 143.05,186.256 143.883,184.589 145.5,183.5C 145.162,186.157 145.829,188.49 147.5,190.5C 147.058,191.739 146.391,192.739 145.5,193.5C 144.709,191.944 144.376,190.61 144.5,189.5C 143.338,194.467 143.171,199.467 144,204.5C 146.092,207.373 147.092,210.707 147,214.5C 147.953,216.592 149.286,216.925 151,215.5C 150.653,212.729 150.82,210.062 151.5,207.5C 154.167,207.5 156.833,207.5 159.5,207.5C 159.5,205.5 159.5,203.5 159.5,201.5C 163.842,201.261 168.176,200.927 172.5,200.5C 172.5,198.5 172.5,196.5 172.5,194.5C 176.833,194.5 181.167,194.5 185.5,194.5C 185.5,192.5 185.5,190.5 185.5,188.5C 187.5,188.5 189.5,188.5 191.5,188.5C 191.5,186.167 191.5,183.833 191.5,181.5C 195.846,181.666 200.179,181.499 204.5,181C 205.45,178.133 207.117,175.8 209.5,174C 207.893,172.951 207.227,171.451 207.5,169.5 Z"/></g>
<g><path style="opacity:0.996" fill="#437994" d="M 70.5,171.5 C 73.9922,172.41 76.9922,174.076 79.5,176.5C 76.0195,175.683 73.0195,174.017 70.5,171.5 Z"/></g>
<g><path style="opacity:0.996" fill="#4c7d96" d="M 83.5,175.5 C 84.1667,175.833 84.8333,176.167 85.5,176.5C 86.8333,177.5 88.1667,178.5 89.5,179.5C 86.9321,178.55 84.4321,178.55 82,179.5C 81.3021,178.309 80.4687,177.309 79.5,176.5C 81.099,176.768 82.4324,176.434 83.5,175.5 Z"/></g>
<g><path style="opacity:0.153" fill="#cae2ed" d="M 85.5,176.5 C 89.9674,177.695 94.3008,179.029 98.5,180.5C 96.8333,180.5 95.1667,180.5 93.5,180.5C 92.1667,180.167 90.8333,179.833 89.5,179.5C 88.1667,178.5 86.8333,177.5 85.5,176.5 Z"/></g>
<g><path style="opacity:0.431" fill="#6b98b1" d="M 93.5,180.5 C 95.1667,180.5 96.8333,180.5 98.5,180.5C 99.1667,180.5 99.8333,180.5 100.5,180.5C 100.833,181.167 101.167,181.833 101.5,182.5C 98.5718,182.435 95.9052,181.768 93.5,180.5 Z"/></g>
<g><path style="opacity:0.224" fill="#b2cddc" d="M 100.5,180.5 C 109.68,181.477 118.68,181.81 127.5,181.5C 127.5,182.167 127.5,182.833 127.5,183.5C 118.812,183.587 110.146,183.253 101.5,182.5C 101.167,181.833 100.833,181.167 100.5,180.5 Z"/></g>
<g><path style="opacity:0.996" fill="#036d8d" d="M 211.5,174.5 C 214.723,176.592 216.723,179.592 217.5,183.5C 218.685,190.829 218.685,198.162 217.5,205.5C 214.417,207.417 212.25,210.084 211,213.5C 209.246,211.75 207.079,211.083 204.5,211.5C 204.649,212.552 204.483,213.552 204,214.5C 199.934,213.536 195.767,213.203 191.5,213.5C 191.5,215.833 191.5,218.167 191.5,220.5C 189.5,220.5 187.5,220.5 185.5,220.5C 185.5,221.833 185.5,223.167 185.5,224.5C 180.093,224.692 175.093,226.192 170.5,229C 172.061,230.86 173.728,232.026 175.5,232.5C 174.68,234.111 173.346,234.778 171.5,234.5C 169.097,234.552 166.764,234.219 164.5,233.5C 157.226,230.559 151.893,225.559 148.5,218.5C 149.93,218.421 151.264,218.754 152.5,219.5C 154.523,217.827 156.856,217.16 159.5,217.5C 159.5,215.167 159.5,212.833 159.5,210.5C 161.5,210.5 163.5,210.5 165.5,210.5C 165.5,209.5 165.5,208.5 165.5,207.5C 169.514,207.666 173.514,207.499 177.5,207C 178.406,205.301 178.739,203.467 178.5,201.5C 182.955,200.858 187.288,199.858 191.5,198.5C 191.5,197.167 191.5,195.833 191.5,194.5C 193.5,194.5 195.5,194.5 197.5,194.5C 197.5,192.5 197.5,190.5 197.5,188.5C 200.119,188.232 202.619,188.565 205,189.5C 206.314,188.687 207.481,187.687 208.5,186.5C 209.086,186.709 209.586,187.043 210,187.5C 211.389,183.728 212.389,183.728 213,187.5C 213.9,186.23 215.066,185.23 216.5,184.5C 214.268,182.079 212.601,178.746 211.5,174.5 Z"/></g>
<g><path style="opacity:0.996" fill="#057391" d="M 255.5,169.5 C 256.5,171.5 257.5,173.5 258.5,175.5C 259.15,177.435 259.483,179.435 259.5,181.5C 258.5,190.16 258.334,198.826 259,207.5C 258.667,207.833 258.333,208.167 258,208.5C 256.956,206.285 256.29,203.952 256,201.5C 255.505,203.473 255.338,205.473 255.5,207.5C 251.895,207.529 248.395,208.195 245,209.5C 241.835,209.604 241.001,208.438 242.5,206C 242.056,204.238 241.556,204.405 241,206.5C 240.749,204.567 240.249,202.734 239.5,201C 241.835,199.48 241.668,197.98 239,196.5C 238.781,197.938 238.281,199.271 237.5,200.5C 236.614,199.675 236.281,198.675 236.5,197.5C 237.451,196.081 237.784,194.415 237.5,192.5C 238.151,193.091 238.818,193.757 239.5,194.5C 240.23,192.659 240.897,190.825 241.5,189C 243.81,188.503 246.143,188.337 248.5,188.5C 248.33,187.178 248.663,186.011 249.5,185C 251.769,184.242 253.936,184.409 256,185.5C 256.582,180.109 256.415,174.776 255.5,169.5 Z"/></g>
<g><path style="opacity:0.055" fill="#d2ecf2" d="M 141.5,189.5 C 141.179,194.695 141.513,199.695 142.5,204.5C 142.893,209.943 144.893,214.609 148.5,218.5C 151.893,225.559 157.226,230.559 164.5,233.5C 164.833,234.167 165.167,234.833 165.5,235.5C 145.631,226.363 137.631,211.03 141.5,189.5 Z"/></g>
<g><path style="opacity:0.996" fill="#035a81" d="M 137.5,230.5 C 139.5,232.833 141.5,235.167 143.5,237.5C 147.411,241.798 152.078,245.131 157.5,247.5C 156.448,249.256 154.781,249.923 152.5,249.5C 148.081,247.792 143.747,245.792 139.5,243.5C 135.732,240.775 131.732,238.275 127.5,236C 123.308,232.411 119.975,228.244 117.5,223.5C 115.113,217.627 112.113,212.127 108.5,207C 101.625,204.71 94.9582,205.043 88.5,208C 84.8484,208.499 81.1817,208.665 77.5,208.5C 76.8413,211.455 76.5079,214.455 76.5,217.5C 72.5,217.5 68.5,217.5 64.5,217.5C 64.3447,220.609 63.6781,223.609 62.5,226.5C 61.5344,224.604 61.2011,222.604 61.5,220.5C 58.3052,220.744 57.3052,222.244 58.5,225C 57.993,227.541 57.3263,230.041 56.5,232.5C 55.6764,229.215 55.1764,225.882 55,222.5C 54.0551,226.114 53.3884,229.781 53,233.5C 52.7679,232.263 52.2679,231.263 51.5,230.5C 51.5,221.167 51.5,211.833 51.5,202.5C 52.3238,206.312 52.8238,210.312 53,214.5C 54.467,210.219 55.6337,205.886 56.5,201.5C 58.8333,201.5 61.1667,201.5 63.5,201.5C 63.3505,202.552 63.5172,203.552 64,204.5C 67.4565,201.801 71.4565,200.467 76,200.5C 85.8823,201.453 95.7156,202.786 105.5,204.5C 106.894,204.379 108.228,204.046 109.5,203.5C 111.117,206.28 112.284,209.28 113,212.5C 116.745,217.086 119.745,222.086 122,227.5C 125.09,231.099 128.59,234.099 132.5,236.5C 132.749,235.418 132.915,234.085 133,232.5C 136.221,235.728 137.721,235.062 137.5,230.5 Z"/></g>
<g><path style="opacity:0.996" fill="#006085" d="M 117.5,223.5 C 115.203,221.706 113.037,219.706 111,217.5C 110.517,218.448 110.351,219.448 110.5,220.5C 107.5,220.5 104.5,220.5 101.5,220.5C 101.5,222.5 101.5,224.5 101.5,226.5C 97.4862,226.334 93.4862,226.501 89.5,227C 88.5769,229.041 88.2436,231.208 88.5,233.5C 86.5,233.5 84.5,233.5 82.5,233.5C 82.5,235.5 82.5,237.5 82.5,239.5C 76.1579,239.334 69.8246,239.5 63.5,240C 61.8078,241.401 61.1412,243.234 61.5,245.5C 57.2411,245.102 55.4078,247.102 56,251.5C 55.4577,246.279 54.6244,246.279 53.5,251.5C 52.8165,251.137 52.1499,250.804 51.5,250.5C 51.5,243.833 51.5,237.167 51.5,230.5C 52.2679,231.263 52.7679,232.263 53,233.5C 53.3884,229.781 54.0551,226.114 55,222.5C 55.1764,225.882 55.6764,229.215 56.5,232.5C 57.3263,230.041 57.993,227.541 58.5,225C 57.3052,222.244 58.3052,220.744 61.5,220.5C 61.2011,222.604 61.5344,224.604 62.5,226.5C 63.6781,223.609 64.3447,220.609 64.5,217.5C 68.5,217.5 72.5,217.5 76.5,217.5C 76.5079,214.455 76.8413,211.455 77.5,208.5C 81.1817,208.665 84.8484,208.499 88.5,208C 94.9582,205.043 101.625,204.71 108.5,207C 112.113,212.127 115.113,217.627 117.5,223.5 Z"/></g>
<g><path style="opacity:0.996" fill="#0f7a94" d="M 259.5,181.5 C 262.315,193.785 261.981,206.119 258.5,218.5C 255.785,220.123 252.785,220.79 249.5,220.5C 249.664,223.187 249.497,225.854 249,228.5C 248.167,226 247,225.833 245.5,228C 247.563,229.572 248.229,231.405 247.5,233.5C 246.522,233.023 245.689,232.357 245,231.5C 244.798,229.744 244.298,228.078 243.5,226.5C 242.526,228.743 242.192,231.076 242.5,233.5C 238.5,233.5 234.5,233.5 230.5,233.5C 230.719,234.675 230.386,235.675 229.5,236.5C 228.868,234.263 227.535,232.597 225.5,231.5C 226.127,230.583 226.461,229.583 226.5,228.5C 226.833,227.167 227.167,225.833 227.5,224.5C 230.835,220.914 232.835,216.581 233.5,211.5C 234.222,211.082 234.722,210.416 235,209.5C 235.499,203.843 235.666,198.176 235.5,192.5C 236.451,193.919 236.784,195.585 236.5,197.5C 236.281,198.675 236.614,199.675 237.5,200.5C 238.281,199.271 238.781,197.938 239,196.5C 241.668,197.98 241.835,199.48 239.5,201C 240.249,202.734 240.749,204.567 241,206.5C 241.556,204.405 242.056,204.238 242.5,206C 241.001,208.438 241.835,209.604 245,209.5C 248.395,208.195 251.895,207.529 255.5,207.5C 255.338,205.473 255.505,203.473 256,201.5C 256.29,203.952 256.956,206.285 258,208.5C 258.333,208.167 258.667,207.833 259,207.5C 258.334,198.826 258.5,190.16 259.5,181.5 Z"/></g>
<g><path style="opacity:0.996" fill="#0d7491" d="M 217.5,183.5 C 223.372,201.843 219.039,217.343 204.5,230C 202.114,231.193 199.78,232.36 197.5,233.5C 195.518,234.817 193.518,234.817 191.5,233.5C 190.496,234.154 189.496,234.987 188.5,236C 183.5,236.667 178.5,236.667 173.5,236C 172.584,235.722 171.918,235.222 171.5,234.5C 173.346,234.778 174.68,234.111 175.5,232.5C 173.728,232.026 172.061,230.86 170.5,229C 175.093,226.192 180.093,224.692 185.5,224.5C 185.5,223.167 185.5,221.833 185.5,220.5C 187.5,220.5 189.5,220.5 191.5,220.5C 191.5,218.167 191.5,215.833 191.5,213.5C 195.767,213.203 199.934,213.536 204,214.5C 204.483,213.552 204.649,212.552 204.5,211.5C 207.079,211.083 209.246,211.75 211,213.5C 212.25,210.084 214.417,207.417 217.5,205.5C 218.685,198.162 218.685,190.829 217.5,183.5 Z"/></g>
<g><path style="opacity:0.021" fill="#d9e9f0" d="M 127.5,181.5 C 129.439,182.014 130.439,183.347 130.5,185.5C 126.19,207.109 132.19,225.109 148.5,239.5C 146.833,238.833 145.167,238.167 143.5,237.5C 141.5,235.167 139.5,232.833 137.5,230.5C 136.488,229.128 135.488,227.795 134.5,226.5C 134.245,224.033 133.245,222.033 131.5,220.5C 129.577,215.096 128.077,209.429 127,203.5C 126.074,197.533 126.574,191.699 128.5,186C 128.472,184.93 128.139,184.097 127.5,183.5C 127.5,182.833 127.5,182.167 127.5,181.5 Z"/></g>
<g><path style="opacity:0.033" fill="#dceff3" d="M 206.5,166.5 C 210.434,168.598 213.6,171.598 216,175.5C 227.394,196.552 224.228,215.052 206.5,231C 203.46,233.22 200.127,234.72 196.5,235.5C 196.833,234.833 197.167,234.167 197.5,233.5C 199.78,232.36 202.114,231.193 204.5,230C 219.039,217.343 223.372,201.843 217.5,183.5C 216.723,179.592 214.723,176.592 211.5,174.5C 210.925,172.589 209.925,170.922 208.5,169.5C 207.833,168.5 207.167,167.5 206.5,166.5 Z"/></g>
<g><path style="opacity:0.114" fill="#daf1f6" d="M 233.5,195.5 C 234.636,200.681 234.636,206.015 233.5,211.5C 232.835,216.581 230.835,220.914 227.5,224.5C 231.792,215.373 233.792,205.707 233.5,195.5 Z"/></g>
<g><path style="opacity:0.753" fill="#6897a9" d="M 131.5,220.5 C 133.245,222.033 134.245,224.033 134.5,226.5C 132.755,224.967 131.755,222.967 131.5,220.5 Z"/></g>
<g><path style="opacity:0.11" fill="#d0ebf0" d="M 242.5,144.5 C 253.59,156.012 260.423,169.679 263,185.5C 266.556,228.234 248.723,258.067 209.5,275C 202.722,277.612 195.722,279.112 188.5,279.5C 188.5,279.167 188.5,278.833 188.5,278.5C 190.415,278.784 192.081,278.451 193.5,277.5C 226.828,270.845 248.495,251.178 258.5,218.5C 261.981,206.119 262.315,193.785 259.5,181.5C 259.483,179.435 259.15,177.435 258.5,175.5C 258.655,172.284 257.655,169.617 255.5,167.5C 252.866,163.451 250.699,159.118 249,154.5C 248.292,153.619 247.458,152.953 246.5,152.5C 244.762,150.079 243.429,147.412 242.5,144.5 Z"/></g>
<g><path style="opacity:0.996" fill="#0a7f97" d="M 258.5,218.5 C 248.495,251.178 226.828,270.845 193.5,277.5C 182.167,277.5 170.833,277.5 159.5,277.5C 163.647,276.675 167.981,276.175 172.5,276C 170.1,275.814 167.766,275.314 165.5,274.5C 169.796,273.672 174.129,273.172 178.5,273C 174.5,272.667 170.5,272.333 166.5,272C 168.473,271.505 170.473,271.338 172.5,271.5C 172.5,269.5 172.5,267.5 172.5,265.5C 176.112,265.573 179.278,264.573 182,262.5C 184.726,263.177 187.559,263.01 190.5,262C 191.022,261.439 191.355,260.772 191.5,260C 190.116,256.318 187.45,254.651 183.5,255C 183.833,254.667 184.167,254.333 184.5,254C 179.067,254.118 174.067,253.285 169.5,251.5C 175.463,252.53 181.463,252.697 187.5,252C 191.614,251.885 195.281,250.718 198.5,248.5C 198.833,248.5 199.167,248.5 199.5,248.5C 202.614,248.445 204.948,247.112 206.5,244.5C 206.833,244.5 207.167,244.5 207.5,244.5C 215.004,240.671 221.338,235.338 226.5,228.5C 226.461,229.583 226.127,230.583 225.5,231.5C 227.535,232.597 228.868,234.263 229.5,236.5C 230.386,235.675 230.719,234.675 230.5,233.5C 234.5,233.5 238.5,233.5 242.5,233.5C 242.192,231.076 242.526,228.743 243.5,226.5C 244.298,228.078 244.798,229.744 245,231.5C 245.689,232.357 246.522,233.023 247.5,233.5C 248.229,231.405 247.563,229.572 245.5,228C 247,225.833 248.167,226 249,228.5C 249.497,225.854 249.664,223.187 249.5,220.5C 252.785,220.79 255.785,220.123 258.5,218.5 Z"/></g>
<g><path style="opacity:0.996" fill="#026789" d="M 117.5,223.5 C 119.975,228.244 123.308,232.411 127.5,236C 131.732,238.275 135.732,240.775 139.5,243.5C 137.712,243.785 136.045,243.452 134.5,242.5C 133.209,241.175 131.876,239.842 130.5,238.5C 126.755,236.296 122.755,234.629 118.5,233.5C 117.833,233.667 117.167,233.833 116.5,234C 117.257,235.512 118.257,236.846 119.5,238C 116.51,241.157 112.844,242.657 108.5,242.5C 108.5,243.5 108.5,244.5 108.5,245.5C 104.158,245.739 99.8244,246.073 95.5,246.5C 95.5,248.5 95.5,250.5 95.5,252.5C 93.5,252.5 91.5,252.5 89.5,252.5C 89.7135,254.144 89.3802,255.644 88.5,257C 84.5598,258.015 80.5598,258.515 76.5,258.5C 76.5,259.5 76.5,260.5 76.5,261.5C 74.4727,261.338 72.4727,261.505 70.5,262C 70.0426,262.414 69.7093,262.914 69.5,263.5C 70.8333,264.167 72.1667,264.833 73.5,265.5C 71.8647,266.681 70.198,266.681 68.5,265.5C 65.7278,266.34 63.0611,267.34 60.5,268.5C 57.6869,265.554 55.3535,262.221 53.5,258.5C 53.405,256.214 52.7384,254.214 51.5,252.5C 51.5,251.833 51.5,251.167 51.5,250.5C 52.1499,250.804 52.8165,251.137 53.5,251.5C 54.6244,246.279 55.4577,246.279 56,251.5C 55.4078,247.102 57.2411,245.102 61.5,245.5C 61.1412,243.234 61.8078,241.401 63.5,240C 69.8246,239.5 76.1579,239.334 82.5,239.5C 82.5,237.5 82.5,235.5 82.5,233.5C 84.5,233.5 86.5,233.5 88.5,233.5C 88.2436,231.208 88.5769,229.041 89.5,227C 93.4862,226.501 97.4862,226.334 101.5,226.5C 101.5,224.5 101.5,222.5 101.5,220.5C 104.5,220.5 107.5,220.5 110.5,220.5C 110.351,219.448 110.517,218.448 111,217.5C 113.037,219.706 115.203,221.706 117.5,223.5 Z"/></g>
<g><path style="opacity:0.996" fill="#026d8d" d="M 139.5,243.5 C 143.747,245.792 148.081,247.792 152.5,249.5C 149.206,249.741 146.206,248.908 143.5,247C 140.183,246.502 136.85,246.335 133.5,246.5C 133.617,248.484 132.95,250.15 131.5,251.5C 129.205,252.136 127.539,253.469 126.5,255.5C 124.955,256.452 123.288,256.785 121.5,256.5C 121.5,259.167 121.5,261.833 121.5,264.5C 117.201,263.653 112.867,262.987 108.5,262.5C 108.5,264.167 108.5,265.833 108.5,267.5C 106.167,267.5 103.833,267.5 101.5,267.5C 101.5,268.833 101.5,270.167 101.5,271.5C 93.5272,271.674 93.5272,272.174 101.5,273C 97.5,273.667 93.5,274.333 89.5,275C 93.1667,275.333 96.8333,275.667 100.5,276C 98.6183,276.198 96.9516,276.698 95.5,277.5C 88.1319,277.683 80.7985,277.35 73.5,276.5C 71.5648,275.85 69.5648,275.517 67.5,275.5C 65.4504,273.453 63.117,271.786 60.5,270.5C 60.5,269.833 60.5,269.167 60.5,268.5C 63.0611,267.34 65.7278,266.34 68.5,265.5C 70.198,266.681 71.8647,266.681 73.5,265.5C 72.1667,264.833 70.8333,264.167 69.5,263.5C 69.7093,262.914 70.0426,262.414 70.5,262C 72.4727,261.505 74.4727,261.338 76.5,261.5C 76.5,260.5 76.5,259.5 76.5,258.5C 80.5598,258.515 84.5598,258.015 88.5,257C 89.3802,255.644 89.7135,254.144 89.5,252.5C 91.5,252.5 93.5,252.5 95.5,252.5C 95.5,250.5 95.5,248.5 95.5,246.5C 99.8244,246.073 104.158,245.739 108.5,245.5C 108.5,244.5 108.5,243.5 108.5,242.5C 112.844,242.657 116.51,241.157 119.5,238C 118.257,236.846 117.257,235.512 116.5,234C 117.167,233.833 117.833,233.667 118.5,233.5C 122.755,234.629 126.755,236.296 130.5,238.5C 131.876,239.842 133.209,241.175 134.5,242.5C 136.045,243.452 137.712,243.785 139.5,243.5 Z"/></g>
<g><path style="opacity:0.298" fill="#bdd9e3" d="M 165.5,235.5 C 168.152,235.41 170.485,236.076 172.5,237.5C 169.848,237.59 167.515,236.924 165.5,235.5 Z"/></g>
<g><path style="opacity:0.435" fill="#bddce2" d="M 196.5,235.5 C 194.562,237.163 192.228,237.829 189.5,237.5C 191.438,235.837 193.772,235.171 196.5,235.5 Z"/></g>
<g><path style="opacity:0.788" fill="#67a3b3" d="M 164.5,233.5 C 166.764,234.219 169.097,234.552 171.5,234.5C 171.918,235.222 172.584,235.722 173.5,236C 178.5,236.667 183.5,236.667 188.5,236C 189.496,234.987 190.496,234.154 191.5,233.5C 193.518,234.817 195.518,234.817 197.5,233.5C 197.167,234.167 196.833,234.833 196.5,235.5C 193.772,235.171 191.438,235.837 189.5,237.5C 183.833,238.833 178.167,238.833 172.5,237.5C 170.485,236.076 168.152,235.41 165.5,235.5C 165.167,234.833 164.833,234.167 164.5,233.5 Z"/></g>
<g><path style="opacity:0.133" fill="#c9e8ee" d="M 227.5,224.5 C 227.167,225.833 226.833,227.167 226.5,228.5C 221.338,235.338 215.004,240.671 207.5,244.5C 215.167,238.833 221.833,232.167 227.5,224.5 Z"/></g>
<g><path style="opacity:0.071" fill="#d6f1f4" d="M 206.5,244.5 C 204.948,247.112 202.614,248.445 199.5,248.5C 201.663,246.917 203.996,245.584 206.5,244.5 Z"/></g>
<g><path style="opacity:0.997" fill="#027390" d="M 152.5,249.5 C 154.781,249.923 156.448,249.256 157.5,247.5C 161.228,248.681 164.895,250.015 168.5,251.5C 165.214,253.155 162.214,255.322 159.5,258C 155.206,259.143 150.873,259.977 146.5,260.5C 146.5,262.167 146.5,263.833 146.5,265.5C 144.5,265.5 142.5,265.5 140.5,265.5C 140.5,267.5 140.5,269.5 140.5,271.5C 136.154,271.334 131.821,271.501 127.5,272C 136.764,272.515 136.764,273.348 127.5,274.5C 129.423,275.308 131.423,275.808 133.5,276C 131.292,276.191 129.292,276.691 127.5,277.5C 116.833,277.5 106.167,277.5 95.5,277.5C 96.9516,276.698 98.6183,276.198 100.5,276C 96.8333,275.667 93.1667,275.333 89.5,275C 93.5,274.333 97.5,273.667 101.5,273C 93.5272,272.174 93.5272,271.674 101.5,271.5C 101.5,270.167 101.5,268.833 101.5,267.5C 103.833,267.5 106.167,267.5 108.5,267.5C 108.5,265.833 108.5,264.167 108.5,262.5C 112.867,262.987 117.201,263.653 121.5,264.5C 121.5,261.833 121.5,259.167 121.5,256.5C 123.288,256.785 124.955,256.452 126.5,255.5C 127.539,253.469 129.205,252.136 131.5,251.5C 132.95,250.15 133.617,248.484 133.5,246.5C 136.85,246.335 140.183,246.502 143.5,247C 146.206,248.908 149.206,249.741 152.5,249.5 Z"/></g>
<g><path style="opacity:0.188" fill="#c6dfe9" d="M 143.5,237.5 C 145.167,238.167 146.833,238.833 148.5,239.5C 163.649,250.914 180.315,253.914 198.5,248.5C 195.281,250.718 191.614,251.885 187.5,252C 181.463,252.697 175.463,252.53 169.5,251.5C 169.167,251.5 168.833,251.5 168.5,251.5C 164.895,250.015 161.228,248.681 157.5,247.5C 152.078,245.131 147.411,241.798 143.5,237.5 Z"/></g>
<g><path style="opacity:0.996" fill="#017993" d="M 168.5,251.5 C 168.833,251.5 169.167,251.5 169.5,251.5C 174.067,253.285 179.067,254.118 184.5,254C 184.167,254.333 183.833,254.667 183.5,255C 187.45,254.651 190.116,256.318 191.5,260C 191.355,260.772 191.022,261.439 190.5,262C 187.559,263.01 184.726,263.177 182,262.5C 179.278,264.573 176.112,265.573 172.5,265.5C 172.5,267.5 172.5,269.5 172.5,271.5C 170.473,271.338 168.473,271.505 166.5,272C 170.5,272.333 174.5,272.667 178.5,273C 174.129,273.172 169.796,273.672 165.5,274.5C 167.766,275.314 170.1,275.814 172.5,276C 167.981,276.175 163.647,276.675 159.5,277.5C 148.833,277.5 138.167,277.5 127.5,277.5C 129.292,276.691 131.292,276.191 133.5,276C 131.423,275.808 129.423,275.308 127.5,274.5C 136.764,273.348 136.764,272.515 127.5,272C 131.821,271.501 136.154,271.334 140.5,271.5C 140.5,269.5 140.5,267.5 140.5,265.5C 142.5,265.5 144.5,265.5 146.5,265.5C 146.5,263.833 146.5,262.167 146.5,260.5C 150.873,259.977 155.206,259.143 159.5,258C 162.214,255.322 165.214,253.155 168.5,251.5 Z"/></g>
<g><path style="opacity:0.192" fill="#7cadc0" d="M 51.5,252.5 C 52.7384,254.214 53.405,256.214 53.5,258.5C 51.9261,256.898 51.2594,254.898 51.5,252.5 Z"/></g>
<g><path style="opacity:0.114" fill="#d6f3f6" d="M 60.5,270.5 C 63.117,271.786 65.4504,273.453 67.5,275.5C 64.3567,275.031 62.0233,273.364 60.5,270.5 Z"/></g>
<g><path style="opacity:0.886" fill="#4190a0" d="M 73.5,276.5 C 80.7985,277.35 88.1319,277.683 95.5,277.5C 106.167,277.5 116.833,277.5 127.5,277.5C 138.167,277.5 148.833,277.5 159.5,277.5C 170.833,277.5 182.167,277.5 193.5,277.5C 192.081,278.451 190.415,278.784 188.5,278.5C 151.165,278.667 113.832,278.5 76.5,278C 75.2625,277.768 74.2625,277.268 73.5,276.5 Z"/></g>
<g><path style="opacity:0.271" fill="#96c7cf" d="M 67.5,275.5 C 69.5648,275.517 71.5648,275.85 73.5,276.5C 74.2625,277.268 75.2625,277.768 76.5,278C 113.832,278.5 151.165,278.667 188.5,278.5C 188.5,278.833 188.5,279.167 188.5,279.5C 150.499,279.667 112.499,279.5 74.5,279C 71.8261,278.33 69.4927,277.163 67.5,275.5 Z"/></g>
</svg>
