<svg xmlns="http://www.w3.org/2000/svg" xmlns:xlink="http://www.w3.org/1999/xlink" width="500" zoomAndPan="magnify" viewBox="0 0 375 374.999991" height="500" preserveAspectRatio="xMidYMid meet" version="1.0"><defs><g/><clipPath id="4c37a6f364"><path d="M 166.953125 178.910156 L 181.871094 178.910156 L 181.871094 204.453125 L 166.953125 204.453125 Z M 166.953125 178.910156 " clip-rule="nonzero"/></clipPath><clipPath id="1299a13eae"><path d="M 168 172 L 179 172 L 179 203 L 168 203 Z M 168 172 " clip-rule="nonzero"/></clipPath><clipPath id="f6eacb6609"><path d="M 163.269531 176.6875 L 176.75 172.074219 L 185.734375 198.332031 L 172.25 202.941406 Z M 163.269531 176.6875 " clip-rule="nonzero"/></clipPath><clipPath id="d0c22914b5"><path d="M 163.269531 176.6875 L 176.75 172.074219 L 185.734375 198.332031 L 172.25 202.941406 Z M 163.269531 176.6875 " clip-rule="nonzero"/></clipPath><clipPath id="d62e0858db"><path d="M 168 174 L 174 174 L 174 203 L 168 203 Z M 168 174 " clip-rule="nonzero"/></clipPath><clipPath id="f6e8468bf9"><path d="M 163.269531 176.6875 L 176.75 172.074219 L 185.734375 198.332031 L 172.25 202.941406 Z M 163.269531 176.6875 " clip-rule="nonzero"/></clipPath><clipPath id="a586a282ae"><path d="M 163.269531 176.6875 L 176.75 172.074219 L 185.734375 198.332031 L 172.25 202.941406 Z M 163.269531 176.6875 " clip-rule="nonzero"/></clipPath></defs><g fill="#000000" fill-opacity="1"><g transform="translate(93.138589, 204.453396)"><g><path d="M 16.140625 -12.0625 L 12.625 -8.3125 L 12.625 0 L 3.328125 0 L 3.328125 -33.234375 L 12.625 -33.234375 L 12.625 -19.421875 L 25.484375 -33.234375 L 35.84375 -33.234375 L 22.265625 -18.515625 L 36.546875 0 L 25.640625 0 Z M 16.140625 -12.0625 "/></g></g></g><g fill="#000000" fill-opacity="1"><g transform="translate(123.993837, 204.453396)"><g><path d="M 25.578125 -6.453125 L 11.53125 -6.453125 L 8.921875 0 L -0.671875 0 L 14 -33.234375 L 23.265625 -33.234375 L 37.96875 0 L 28.203125 0 Z M 22.828125 -13.390625 L 18.5625 -24.015625 L 14.28125 -13.390625 Z M 22.828125 -13.390625 "/></g></g></g><g fill="#000000" fill-opacity="1"><g transform="translate(156.463043, 204.453396)"><g><path d="M 17.84375 -8.828125 L 12.71875 -8.828125 L 12.71875 0 L 3.328125 0 L 3.328125 -33.234375 L 18.515625 -33.234375 C 21.515625 -33.234375 24.125 -32.734375 26.34375 -31.734375 C 28.5625 -30.734375 30.269531 -29.304688 31.46875 -27.453125 C 32.675781 -25.609375 33.28125 -23.4375 33.28125 -20.9375 C 33.28125 -18.53125 32.71875 -16.429688 31.59375 -14.640625 C 30.46875 -12.859375 28.859375 -11.457031 26.765625 -10.4375 L 33.9375 0 L 23.875 0 Z M 23.78125 -20.9375 C 23.78125 -22.488281 23.289062 -23.691406 22.3125 -24.546875 C 21.332031 -25.398438 19.875 -25.828125 17.9375 -25.828125 L 12.71875 -25.828125 L 12.71875 -16.09375 L 17.9375 -16.09375 C 19.875 -16.09375 21.332031 -16.507812 22.3125 -17.34375 C 23.289062 -18.1875 23.78125 -19.382812 23.78125 -20.9375 Z M 23.78125 -20.9375 "/></g></g></g><g fill="#000000" fill-opacity="1"><g transform="translate(186.748654, 204.453396)"><g><path d="M 10.390625 -25.78125 L 0.1875 -25.78125 L 0.1875 -33.234375 L 29.953125 -33.234375 L 29.953125 -25.78125 L 19.796875 -25.78125 L 19.796875 0 L 10.390625 0 Z M 10.390625 -25.78125 "/></g></g></g><g fill="#000000" fill-opacity="1"><g transform="translate(212.049952, 204.453396)"><g><path d="M 3.328125 -33.234375 L 12.71875 -33.234375 L 12.71875 0 L 3.328125 0 Z M 3.328125 -33.234375 "/></g></g></g><g fill="#000000" fill-opacity="1"><g transform="translate(223.30026, 204.453396)"><g><path d="M 12.71875 -25.96875 L 12.71875 -18.65625 L 27.390625 -18.65625 L 27.390625 -11.390625 L 12.71875 -11.390625 L 12.71875 0 L 3.328125 0 L 3.328125 -33.234375 L 29.390625 -33.234375 L 29.390625 -25.96875 Z M 12.71875 -25.96875 "/></g></g></g><g fill="#000000" fill-opacity="1"><g transform="translate(248.933852, 204.453396)"><g><path d="M 21.125 -11.921875 L 21.125 0 L 11.71875 0 L 11.71875 -12.0625 L -0.953125 -33.234375 L 8.96875 -33.234375 L 16.84375 -20.03125 L 24.734375 -33.234375 L 33.84375 -33.234375 Z M 21.125 -11.921875 "/></g></g></g><g clip-path="url(#4c37a6f364)"><path fill="#000000" d="M 166.953125 178.910156 L 181.871094 178.910156 L 181.871094 204.4375 L 166.953125 204.4375 Z M 166.953125 178.910156 " fill-opacity="1" fill-rule="nonzero"/></g><g clip-path="url(#1299a13eae)"><g clip-path="url(#f6eacb6609)"><g clip-path="url(#d0c22914b5)"><path fill="#ffffff" d="M 169.875 174.425781 L 176.59375 172.128906 L 174.351562 182.976562 L 178.292969 181.632812 L 172.226562 202.863281 L 173.007812 187.738281 L 168.792969 189.417969 Z M 169.875 174.425781 " fill-opacity="1" fill-rule="nonzero"/></g></g></g><g clip-path="url(#d62e0858db)"><g clip-path="url(#f6e8468bf9)"><g clip-path="url(#a586a282ae)"><path fill="#000000" d="M 169.875 174.425781 L 171.035156 174.03125 L 168.792969 189.417969 Z M 172.226562 202.863281 L 173.816406 187.460938 L 173.007812 187.738281 Z M 172.226562 202.863281 " fill-opacity="1" fill-rule="nonzero"/></g></g></g></svg>