<?xml version="1.0" encoding="UTF-8"?>
<!-- Generator: visioncortex VTracer 0.6.3 -->
<svg version="1.1" xmlns="http://www.w3.org/2000/svg" width="160" height="191">
<path d="M0 0 C52.8 0 105.6 0 160 0 C160 63.03 160 126.06 160 191 C107.2 191 54.4 191 0 191 C0 127.97 0 64.94 0 0 Z " fill="#959B9B" transform="translate(0,0)"/>
<path d="M0 0 C11.99 8.65 18.9 20.55 22.37 34.75 C24.11 52.54 18.92 65.9 10.45 81.14 C9.02 84.47 9.39 87.34 9.68 90.93 C12.51 92.82 13.68 93.26 16.87 93.81 C25.71 95.7 31.49 99.43 36.68 106.93 C40.32 113.37 40.9 120.48 38.95 127.58 C35.72 136.33 31.4 141 22.98 144.95 C16.78 147.59 10.48 148.11 3.98 146.1 C-3.56 142.66 -9.2 137.49 -12.26 129.68 C-14.04 123.42 -14.39 116.13 -12.32 109.93 C-12.25 108.54 -12.23 107.14 -12.26 105.75 C-12.28 104.49 -12.3 103.23 -12.32 101.93 C-17.32 99.29 -22.49 99.56 -28.01 99.43 C-44.96 99.04 -58.83 95.09 -71.32 82.93 C-82.57 70.1 -87.4 54.93 -86.52 38.06 C-85.12 22.9 -76.56 10.55 -65.32 0.93 C-45.15 -13.98 -20.72 -13.05 0 0 Z " fill="#024E7B" transform="translate(90.3203125,13.06640625)"/>
<path d="M0 0 C13.66 3.6 25 14.04 32.3 25.79 C38.81 38.1 40.52 54.01 36.81 67.56 C36.25 69.06 35.65 70.54 35 72 C34.67 72.8 34.34 73.6 34 74.43 C27.01 89.97 15.4 98.49 0.1 104.84 C-5.05 106.77 -9.53 107.17 -15.02 107.21 C-16.23 107.22 -16.23 107.22 -17.46 107.24 C-20.12 107.27 -22.79 107.29 -25.45 107.31 C-26.82 107.32 -26.82 107.32 -28.21 107.33 C-33.04 107.36 -37.87 107.39 -42.7 107.41 C-46.68 107.42 -50.67 107.46 -54.65 107.51 C-59.47 107.57 -64.3 107.6 -69.12 107.61 C-70.95 107.62 -72.78 107.64 -74.61 107.66 C-91.89 107.93 -91.89 107.93 -98.41 102.64 C-104.2 96.65 -106.13 91.94 -106.11 83.67 C-106.11 82.39 -106.11 81.11 -106.11 79.79 C-106.11 78.4 -106.1 77 -106.1 75.61 C-106.1 74.18 -106.09 72.75 -106.09 71.32 C-106.09 67.57 -106.08 63.81 -106.07 60.06 C-106.06 56.22 -106.05 52.39 -106.05 48.55 C-106.04 41.04 -106.02 33.52 -106 26 C-102.78 27.57 -99.91 29.37 -96.94 31.38 C-91.52 34.85 -86.14 37.13 -80 39 C-78.41 39.53 -78.41 39.53 -76.79 40.07 C-72.18 41.2 -67.79 41.45 -63.06 41.62 C-62.19 41.66 -61.31 41.7 -60.41 41.74 C-58.28 41.84 -56.14 41.92 -54 42 C-53.99 43.23 -53.97 44.46 -53.96 45.73 C-53.64 59.24 -51.91 69.97 -42.18 80.09 C-33.56 87.64 -23.94 89.49 -12.72 89.31 C-7.51 88.88 -3.55 87.51 1 85 C1.78 84.59 2.56 84.18 3.36 83.75 C9.64 80.04 13.37 75.25 17 69 C17.36 68.4 17.72 67.8 18.1 67.18 C21.71 59.69 21.12 48.94 19.31 40.96 C15.64 31.04 8.93 23.47 -0.51 18.74 C-2.66 17.78 -4.81 16.86 -7 16 C-6.4 11.86 -4.99 8.82 -2.94 5.19 C-2.12 3.72 -2.12 3.72 -1.28 2.23 C-0.86 1.49 -0.43 0.76 0 0 Z " fill="#03698B" transform="translate(120,81)"/>
<path d="M0 0 C7.51 4.81 12.9 10.29 15.6 18.92 C17.49 28.79 15.88 38.13 10.34 46.51 C4.88 53.29 -1.58 57.4 -10.31 58.37 C-19.18 58.55 -26.91 57.76 -34 52 C-40.58 45.51 -45.29 39.39 -45.52 29.85 C-45.43 20.53 -44.45 13.93 -37.98 6.76 C-27.58 -3.2 -13.36 -7.09 0 0 Z " fill="#969B9B" transform="translate(73,30)"/>
<path d="M0 0 C11.54 2.54 20.04 4.95 27 15 C30.64 21.44 31.22 28.55 29.27 35.65 C26.04 44.4 21.72 49.07 13.3 53.02 C7.1 55.66 0.8 56.18 -5.7 54.16 C-13.24 50.72 -18.88 45.56 -21.94 37.75 C-23.72 31.49 -24.07 24.2 -22 18 C-21.93 16.61 -21.91 15.21 -21.94 13.81 C-21.96 12.55 -21.98 11.3 -22 10 C-27 7.36 -32.17 7.63 -37.69 7.5 C-45.01 7.33 -51.86 6.68 -59 5 C-55.49 4.07 -52.12 3.67 -48.5 3.38 C-46.81 3.23 -46.81 3.23 -45.09 3.09 C-42.34 3.01 -40.61 3.3 -38 4 C-35.88 4.09 -33.75 4.13 -31.62 4.12 C-30.52 4.13 -29.42 4.13 -28.29 4.13 C-24.98 4.07 -24.98 4.07 -21.7 3.42 C-19 3 -19 3 -17.12 4.12 C-15.68 6.54 -15.78 8.24 -16 11 C-16.66 11.33 -17.32 11.66 -18 12 C-17.47 13.08 -17.47 13.08 -16.94 14.19 C-15.87 17.39 -16.27 18.77 -17 22 C-16.68 23.67 -16.35 25.34 -16 27 C-16.5 28.49 -16.5 28.49 -17 30 C-17.66 30 -18.32 30 -19 30 C-18.5 31.22 -18.01 32.43 -17.5 33.69 C-16.28 36.92 -15.67 39.5 -16 43 C-14.35 43 -12.7 43 -11 43 C-11 43.99 -11 44.98 -11 46 C-6.88 48 -3.55 48.18 1 48 C1.33 48.99 1.66 49.98 2 51 C4.02 51.73 4.02 51.73 6 52 C6.66 50.68 7.32 49.36 8 48 C10.97 48 13.94 48 17 48 C18.56 43.61 18.56 43.61 19 39 C20.65 39 22.3 39 24 39 C24.46 38.04 24.46 38.04 24.94 37.06 C26 35 26 35 27 34 C27.07 31.44 27 28.9 26.94 26.35 C27 24 27 24 28 22 C27.34 22 26.68 22 26 22 C26 21.34 26 20.68 26 20 C25.34 20 24.68 20 24 20 C23.67 20.66 23.34 21.32 23 22 C21.68 21.67 20.36 21.34 19 21 C19.09 19.11 19.09 19.11 19.19 17.19 C19.24 13.83 19.24 13.83 17.5 11 C17 10.67 16.51 10.34 16 10 C15.34 10.99 14.68 11.98 14 13 C12.68 12.67 11.36 12.34 10 12 C10 9.36 10 6.72 10 4 C7.03 4 4.06 4 1 4 C0.5 2.02 0.5 2.02 0 0 Z " fill="#0A6A8A" transform="translate(100,105)"/>
<path d="M0 0 C4.95 0 9.9 0 15 0 C15 4.95 15 9.9 15 15 C14.67 15 14.34 15 14 15 C14 11.04 14 7.08 14 3 C11.69 3 9.38 3 7 3 C7 2.67 7 2.34 7 2 C4.69 1.67 2.38 1.34 0 1 C0 0.67 0 0.34 0 0 Z " fill="#246687" transform="translate(51,123)"/>
<path d="M0 0 C0.33 0 0.66 0 1 0 C2.35 6.36 2.35 6.36 0.69 9.44 C-1 11 -1 11 -3 11 C-2.01 7.37 -1.02 3.74 0 0 Z " fill="#255F7F" transform="translate(88,63)"/>
</svg>
