<?xml version="1.0" encoding="UTF-8"?>
<!DOCTYPE svg PUBLIC "-//W3C//DTD SVG 1.1//EN" "http://www.w3.org/Graphics/SVG/1.1/DTD/svg11.dtd">
<svg xmlns="http://www.w3.org/2000/svg" version="1.1" width="290px" height="346px" style="shape-rendering:geometricPrecision; text-rendering:geometricPrecision; image-rendering:optimizeQuality; fill-rule:evenodd; clip-rule:evenodd" xmlns:xlink="http://www.w3.org/1999/xlink">
<g><path style="opacity:1" fill="#ffffff" d="M 137.5,10.5 C 140.837,12.8352 144.504,14.6686 148.5,16C 149.409,18.3447 151.075,20.678 153.5,23C 153.165,24.5026 153.165,25.836 153.5,27C 141.008,29.5486 140.674,31.2153 152.5,32C 151.536,36.0659 151.203,40.2325 151.5,44.5C 146.125,44.1718 140.792,44.5052 135.5,45.5C 130.193,48.6075 130.86,50.2742 137.5,50.5C 137.688,52.1033 137.188,53.4366 136,54.5C 130.892,51.792 125.559,49.4587 120,47.5C 110.209,47.1173 100.376,47.6173 90.5,49C 83.8642,50.646 78.1975,53.8126 73.5,58.5C 73.5,59.1667 73.1667,59.5 72.5,59.5C 70.8333,59.5 69.1667,59.5 67.5,59.5C 67.3298,62.6759 65.6631,64.6759 62.5,65.5C 59.4788,70.2232 56.4788,74.8899 53.5,79.5C 52.2921,80.2341 50.9587,80.5674 49.5,80.5C 49.665,83.8499 49.4983,87.1832 49,90.5C 47.2261,92.6507 45.7261,94.984 44.5,97.5C 43.675,98.3857 42.675,98.719 41.5,98.5C 41.719,97.325 41.3857,96.325 40.5,95.5C 39.5481,97.0453 39.2148,98.712 39.5,100.5C 36.8333,100.5 34.1667,100.5 31.5,100.5C 31.5,103.167 31.5,105.833 31.5,108.5C 28.8333,108.5 26.1667,108.5 23.5,108.5C 24.1116,116.93 20.7783,118.763 13.5,114C 14.1258,113.25 14.6258,112.416 15,111.5C 15.6667,106.5 15.6667,101.5 15,96.5C 14.0427,90.4847 12.5427,85.3181 10.5,81C 11.0566,76.2969 12.3899,71.7969 14.5,67.5C 14.4573,66.5836 14.1239,65.9169 13.5,65.5C 35.6106,20.9362 71.6106,1.10284 121.5,6C 127.124,6.90247 132.458,8.40247 137.5,10.5 Z"/></g>
<g><path style="opacity:1" fill="#ffffff" d="M 137.5,10.5 C 151.947,14.884 164.28,22.5507 174.5,33.5C 175.713,36.2254 177.546,38.5588 180,40.5C 181.488,44.8101 183.488,48.8101 186,52.5C 187.11,54.0368 188.61,54.7035 190.5,54.5C 191.261,58.1164 192.761,61.4497 195,64.5C 195.419,66.6797 195.252,68.8463 194.5,71C 194.826,73.4845 195.826,75.6512 197.5,77.5C 197.082,81.7876 196.916,86.1209 197,90.5C 196.147,88.0645 195.147,85.7312 194,83.5C 193.889,87.4546 193.222,91.4546 192,95.5C 190.801,92.2744 190.301,88.941 190.5,85.5C 187.32,86.6624 184.653,88.6624 182.5,91.5C 181.571,92.6888 181.238,94.0222 181.5,95.5C 178.753,95.1866 176.086,95.52 173.5,96.5C 175.103,99.3436 175.603,102.344 175,105.5C 174.225,101.222 171.725,98.8889 167.5,98.5C 167.649,97.448 167.483,96.448 167,95.5C 166.187,97.4357 165.687,99.4357 165.5,101.5C 164.5,101.5 163.5,101.5 162.5,101.5C 162.665,97.8183 162.499,94.1516 162,90.5C 158.808,84.5876 155.808,78.5876 153,72.5C 152.023,71.2264 151.189,71.2264 150.5,72.5C 135.155,52.5502 115.155,45.3835 90.5,51C 84.5463,52.9797 78.8796,55.4797 73.5,58.5C 78.1975,53.8126 83.8642,50.646 90.5,49C 100.376,47.6173 110.209,47.1173 120,47.5C 125.559,49.4587 130.892,51.792 136,54.5C 137.188,53.4366 137.688,52.1033 137.5,50.5C 130.86,50.2742 130.193,48.6075 135.5,45.5C 140.792,44.5052 146.125,44.1718 151.5,44.5C 151.203,40.2325 151.536,36.0659 152.5,32C 140.674,31.2153 141.008,29.5486 153.5,27C 153.165,25.836 153.165,24.5026 153.5,23C 151.075,20.678 149.409,18.3447 148.5,16C 144.504,14.6686 140.837,12.8352 137.5,10.5 Z"/></g>
<g><path style="opacity:1" fill="#ffffff" d="M 174.5,33.5 C 189.329,47.8128 198.996,65.1462 203.5,85.5C 202.67,95.3249 202.17,105.325 202,115.5C 199.602,120.913 197.936,126.579 197,132.5C 195.187,134.472 194.02,134.472 193.5,132.5C 194.037,131.259 194.704,130.092 195.5,129C 195.167,128.5 194.833,128 194.5,127.5C 193.218,129.179 192.218,131.013 191.5,133C 188.774,133.182 186.107,133.682 183.5,134.5C 184.833,136.167 184.833,137.833 183.5,139.5C 180.914,140.48 178.247,140.813 175.5,140.5C 175.719,139.325 175.386,138.325 174.5,137.5C 172.477,139.173 170.144,139.84 167.5,139.5C 167.5,142.167 167.5,144.833 167.5,147.5C 163.513,148.705 159.513,148.705 155.5,147.5C 155.034,145.799 155.034,144.299 155.5,143C 153.875,142.147 153.542,141.147 154.5,140C 153.167,140 151.833,140 150.5,140C 151.227,138.601 151.727,137.101 152,135.5C 153.101,133.606 154.434,132.939 156,133.5C 157.977,128.255 159.644,122.922 161,117.5C 161.317,119.301 161.984,119.634 163,118.5C 162.868,112.86 162.701,107.193 162.5,101.5C 163.5,101.5 164.5,101.5 165.5,101.5C 165.687,99.4357 166.187,97.4357 167,95.5C 167.483,96.448 167.649,97.448 167.5,98.5C 171.725,98.8889 174.225,101.222 175,105.5C 175.603,102.344 175.103,99.3436 173.5,96.5C 176.086,95.52 178.753,95.1866 181.5,95.5C 181.238,94.0222 181.571,92.6888 182.5,91.5C 184.653,88.6624 187.32,86.6624 190.5,85.5C 190.301,88.941 190.801,92.2744 192,95.5C 193.222,91.4546 193.889,87.4546 194,83.5C 195.147,85.7312 196.147,88.0645 197,90.5C 196.916,86.1209 197.082,81.7876 197.5,77.5C 195.826,75.6512 194.826,73.4845 194.5,71C 195.252,68.8463 195.419,66.6797 195,64.5C 192.761,61.4497 191.261,58.1164 190.5,54.5C 188.61,54.7035 187.11,54.0368 186,52.5C 183.488,48.8101 181.488,44.8101 180,40.5C 177.546,38.5588 175.713,36.2254 174.5,33.5 Z"/></g>
<g><path style="opacity:1" fill="#ffffff" d="M 13.5,65.5 C 14.1239,65.9169 14.4573,66.5836 14.5,67.5C 12.3899,71.7969 11.0566,76.2969 10.5,81C 12.5427,85.3181 14.0427,90.4847 15,96.5C 15.6667,101.5 15.6667,106.5 15,111.5C 14.6258,112.416 14.1258,113.25 13.5,114C 20.7783,118.763 24.1116,116.93 23.5,108.5C 26.1667,108.5 28.8333,108.5 31.5,108.5C 31.5,105.833 31.5,103.167 31.5,100.5C 34.1667,100.5 36.8333,100.5 39.5,100.5C 39.2148,98.712 39.5481,97.0453 40.5,95.5C 41.3857,96.325 41.719,97.325 41.5,98.5C 42.675,98.719 43.675,98.3857 44.5,97.5C 45.7261,94.984 47.2261,92.6507 49,90.5C 49.4983,87.1832 49.665,83.8499 49.5,80.5C 50.9587,80.5674 52.2921,80.2341 53.5,79.5C 47.2698,95.1672 46.9365,111.001 52.5,127C 50.7215,126.021 49.0548,126.354 47.5,128C 48.6405,128.741 48.6405,129.575 47.5,130.5C 44.9135,131.48 42.2469,131.813 39.5,131.5C 39.5,134.5 39.5,137.5 39.5,140.5C 36.8333,140.5 34.1667,140.5 31.5,140.5C 30.5804,142.881 30.5804,145.214 31.5,147.5C 27.8948,148.692 25.8948,147.359 25.5,143.5C 24.0222,143.238 22.6888,143.571 21.5,144.5C 22.315,146.955 23.315,149.289 24.5,151.5C 24.2668,152.932 23.6001,153.432 22.5,153C 18.4486,147.397 15.6153,141.23 14,134.5C 12.8873,133.695 11.7206,133.028 10.5,132.5C 3.25806,109.927 4.25806,87.5938 13.5,65.5 Z"/></g>
<g><path style="opacity:1" fill="#ffffff" d="M 72.5,59.5 C 47.9615,81.3402 43.7948,106.674 60,135.5C 65.4946,143.17 72.3279,149.17 80.5,153.5C 79.6618,153.842 79.3284,154.508 79.5,155.5C 78.3778,156.947 76.8778,157.947 75,158.5C 74.6667,158.167 74.3333,157.833 74,157.5C 72.2658,159.451 70.0991,160.451 67.5,160.5C 67.5,161.5 67.5,162.5 67.5,163.5C 63.5341,164.162 59.5341,164.495 55.5,164.5C 55.719,165.675 55.3857,166.675 54.5,167.5C 52.5401,166.277 50.7068,164.944 49,163.5C 48.3333,167.5 47.6667,167.5 47,163.5C 46.6667,164.167 46.3333,164.833 46,165.5C 45.6121,164.572 44.9454,163.905 44,163.5C 42.5781,164.205 41.2447,164.539 40,164.5C 39.0083,162.335 37.8417,162.501 36.5,165C 37.1868,166.162 37.3534,167.328 37,168.5C 35.8668,166.789 34.3668,166.289 32.5,167C 33.1667,167.667 33.8333,168.333 34.5,169C 33.244,169.417 32.5774,170.25 32.5,171.5C 21.8625,160.489 14.5292,147.489 10.5,132.5C 11.7206,133.028 12.8873,133.695 14,134.5C 15.6153,141.23 18.4486,147.397 22.5,153C 23.6001,153.432 24.2668,152.932 24.5,151.5C 23.315,149.289 22.315,146.955 21.5,144.5C 22.6888,143.571 24.0222,143.238 25.5,143.5C 25.8948,147.359 27.8948,148.692 31.5,147.5C 30.5804,145.214 30.5804,142.881 31.5,140.5C 34.1667,140.5 36.8333,140.5 39.5,140.5C 39.5,137.5 39.5,134.5 39.5,131.5C 42.2469,131.813 44.9135,131.48 47.5,130.5C 48.6405,129.575 48.6405,128.741 47.5,128C 49.0548,126.354 50.7215,126.021 52.5,127C 46.9365,111.001 47.2698,95.1672 53.5,79.5C 56.4788,74.8899 59.4788,70.2232 62.5,65.5C 65.6631,64.6759 67.3298,62.6759 67.5,59.5C 69.1667,59.5 70.8333,59.5 72.5,59.5 Z"/></g>
<g><path style="opacity:1" fill="#ffffff" d="M 162.5,101.5 C 162.701,107.193 162.868,112.86 163,118.5C 161.984,119.634 161.317,119.301 161,117.5C 159.644,122.922 157.977,128.255 156,133.5C 154.434,132.939 153.101,133.606 152,135.5C 151.727,137.101 151.227,138.601 150.5,140C 151.833,140 153.167,140 154.5,140C 153.542,141.147 153.875,142.147 155.5,143C 155.034,144.299 155.034,145.799 155.5,147.5C 159.513,148.705 163.513,148.705 167.5,147.5C 167.5,144.833 167.5,142.167 167.5,139.5C 170.144,139.84 172.477,139.173 174.5,137.5C 175.386,138.325 175.719,139.325 175.5,140.5C 178.247,140.813 180.914,140.48 183.5,139.5C 184.833,137.833 184.833,136.167 183.5,134.5C 186.107,133.682 188.774,133.182 191.5,133C 192.218,131.013 193.218,129.179 194.5,127.5C 194.833,128 195.167,128.5 195.5,129C 194.704,130.092 194.037,131.259 193.5,132.5C 194.02,134.472 195.187,134.472 197,132.5C 197.936,126.579 199.602,120.913 202,115.5C 202.17,105.325 202.67,95.3249 203.5,85.5C 204.351,96.4767 204.684,107.477 204.5,118.5C 203.883,118.611 203.383,118.944 203,119.5C 201.044,127.62 198.71,135.62 196,143.5C 193.159,147.542 190.992,151.875 189.5,156.5C 189.008,158.819 188.008,160.819 186.5,162.5C 182.635,163.706 180.635,166.373 180.5,170.5C 179.5,170.5 178.5,170.5 177.5,170.5C 177.874,161.521 176.874,161.188 174.5,169.5C 171.5,169.5 168.5,169.5 165.5,169.5C 165.5,170.5 165.5,171.5 165.5,172.5C 164.167,172.5 162.833,172.5 161.5,172.5C 161.5,173.5 161.5,174.5 161.5,175.5C 164.167,175.5 166.833,175.5 169.5,175.5C 168.948,177.331 168.948,178.997 169.5,180.5C 168.975,181.192 168.308,181.692 167.5,182C 158.165,181.434 148.832,181.601 139.5,182.5C 137.215,184.595 135.215,186.928 133.5,189.5C 134.09,190.799 135.09,191.632 136.5,192C 134.459,193.741 132.292,193.908 130,192.5C 125.064,195.621 125.397,197.954 131,199.5C 132.861,198.236 134.861,197.236 137,196.5C 138.762,197.591 140.596,198.591 142.5,199.5C 142.291,200.086 141.957,200.586 141.5,201C 138.326,200.463 135.326,200.63 132.5,201.5C 130.326,200.137 128.159,199.803 126,200.5C 125.667,199.167 125.333,197.833 125,196.5C 124.511,198.604 123.345,198.938 121.5,197.5C 118.459,197.982 115.459,198.649 112.5,199.5C 115.306,200.168 117.972,200.834 120.5,201.5C 106.785,201.692 93.1187,201.026 79.5,199.5C 62.9345,195.387 48.6012,187.387 36.5,175.5C 36.7352,174.903 37.2352,174.57 38,174.5C 42.1497,178.817 46.983,181.984 52.5,184C 55.0578,189.304 58.3912,189.804 62.5,185.5C 62.8333,186 63.1667,186.5 63.5,187C 62.2927,188.3 61.6261,189.8 61.5,191.5C 65.6034,194.131 70.1034,195.797 75,196.5C 74.734,193.099 76.234,191.433 79.5,191.5C 79.5,190.167 79.5,188.833 79.5,187.5C 82.8984,187.82 86.2317,187.487 89.5,186.5C 90.9876,184.423 92.9876,183.423 95.5,183.5C 95.5,182.167 95.5,180.833 95.5,179.5C 100.833,179.833 106.167,180.167 111.5,180.5C 111.5,179.5 111.5,178.5 111.5,177.5C 108.813,177.664 106.146,177.497 103.5,177C 106.557,176.744 109.557,176.244 112.5,175.5C 112.833,175.167 113.167,174.833 113.5,174.5C 112.833,173.833 112.167,173.167 111.5,172.5C 116.73,171.075 116.73,169.909 111.5,169C 113.247,166.903 115.58,166.237 118.5,167C 117.5,166.667 116.5,166.333 115.5,166C 116.167,165.833 116.833,165.667 117.5,165.5C 119.155,166.228 120.821,166.395 122.5,166C 121.672,165.085 120.672,164.419 119.5,164C 121.211,162.867 121.711,161.367 121,159.5C 119.301,160.406 117.467,160.739 115.5,160.5C 115.321,162.606 114.321,164.272 112.5,165.5C 109.763,163.898 106.763,163.064 103.5,163C 106.167,162.667 108.833,162.333 111.5,162C 110,161.833 108.5,161.667 107,161.5C 101.038,162.848 95.2051,163.348 89.5,163C 90.8333,162 92.1667,161 93.5,160C 89.0083,157.879 84.3416,156.379 79.5,155.5C 79.3284,154.508 79.6618,153.842 80.5,153.5C 109.479,164.555 133.312,157.889 152,133.5C 163.663,112.814 163.163,92.4811 150.5,72.5C 151.189,71.2264 152.023,71.2264 153,72.5C 155.808,78.5876 158.808,84.5876 162,90.5C 162.499,94.1516 162.665,97.8183 162.5,101.5 Z"/></g>
<g><path style="opacity:0.306" fill="#ffffff" d="M 204.5,118.5 C 203.787,132.992 198.787,145.659 189.5,156.5C 190.992,151.875 193.159,147.542 196,143.5C 198.71,135.62 201.044,127.62 203,119.5C 203.383,118.944 203.883,118.611 204.5,118.5 Z"/></g>
<g><path style="opacity:1" fill="#ffffff" d="M 239.5,156.5 C 239.297,158.39 239.963,159.89 241.5,161C 232.311,168.602 232.644,175.769 242.5,182.5C 243.31,187.128 245.81,190.462 250,192.5C 251.831,198.83 253.664,205.163 255.5,211.5C 255.43,212.772 255.097,213.938 254.5,215C 257.663,219.486 258.33,224.32 256.5,229.5C 256.5,232.833 256.5,236.167 256.5,239.5C 256.158,240.338 255.492,240.672 254.5,240.5C 253.938,217.209 244.272,198.709 225.5,185C 218.435,181.135 211.102,177.802 203.5,175C 202.978,174.439 202.645,173.772 202.5,173C 207.65,163.863 212.65,154.696 217.5,145.5C 225.452,148.143 232.786,151.809 239.5,156.5 Z"/></g>
<g><path style="opacity:1" fill="#ffffff" d="M 79.5,155.5 C 84.3416,156.379 89.0083,157.879 93.5,160C 92.1667,161 90.8333,162 89.5,163C 95.2051,163.348 101.038,162.848 107,161.5C 108.5,161.667 110,161.833 111.5,162C 108.833,162.333 106.167,162.667 103.5,163C 106.763,163.064 109.763,163.898 112.5,165.5C 114.321,164.272 115.321,162.606 115.5,160.5C 117.467,160.739 119.301,160.406 121,159.5C 121.711,161.367 121.211,162.867 119.5,164C 120.672,164.419 121.672,165.085 122.5,166C 120.821,166.395 119.155,166.228 117.5,165.5C 116.833,165.667 116.167,165.833 115.5,166C 116.5,166.333 117.5,166.667 118.5,167C 115.58,166.237 113.247,166.903 111.5,169C 116.73,169.909 116.73,171.075 111.5,172.5C 112.167,173.167 112.833,173.833 113.5,174.5C 113.167,174.833 112.833,175.167 112.5,175.5C 109.557,176.244 106.557,176.744 103.5,177C 106.146,177.497 108.813,177.664 111.5,177.5C 111.5,178.5 111.5,179.5 111.5,180.5C 106.167,180.167 100.833,179.833 95.5,179.5C 95.5,180.833 95.5,182.167 95.5,183.5C 92.9876,183.423 90.9876,184.423 89.5,186.5C 86.2317,187.487 82.8984,187.82 79.5,187.5C 79.5,188.833 79.5,190.167 79.5,191.5C 76.234,191.433 74.734,193.099 75,196.5C 70.1034,195.797 65.6034,194.131 61.5,191.5C 61.6261,189.8 62.2927,188.3 63.5,187C 63.1667,186.5 62.8333,186 62.5,185.5C 58.3912,189.804 55.0578,189.304 52.5,184C 46.983,181.984 42.1497,178.817 38,174.5C 37.2352,174.57 36.7352,174.903 36.5,175.5C 34.8333,174.5 33.5,173.167 32.5,171.5C 32.5774,170.25 33.244,169.417 34.5,169C 33.8333,168.333 33.1667,167.667 32.5,167C 34.3668,166.289 35.8668,166.789 37,168.5C 37.3534,167.328 37.1868,166.162 36.5,165C 37.8417,162.501 39.0083,162.335 40,164.5C 41.2447,164.539 42.5781,164.205 44,163.5C 44.9454,163.905 45.6121,164.572 46,165.5C 46.3333,164.833 46.6667,164.167 47,163.5C 47.6667,167.5 48.3333,167.5 49,163.5C 50.7068,164.944 52.5401,166.277 54.5,167.5C 55.3857,166.675 55.719,165.675 55.5,164.5C 59.5341,164.495 63.5341,164.162 67.5,163.5C 67.5,162.5 67.5,161.5 67.5,160.5C 70.0991,160.451 72.2658,159.451 74,157.5C 74.3333,157.833 74.6667,158.167 75,158.5C 76.8778,157.947 78.3778,156.947 79.5,155.5 Z"/></g>
<g><path style="opacity:1" fill="#ffffff" d="M 180.5,170.5 C 179.496,171.683 178.662,173.016 178,174.5C 177.667,178.167 177.333,181.833 177,185.5C 176.5,186 176,186.5 175.5,187C 177.394,188.101 178.061,189.434 177.5,191C 175.395,192.455 173.395,193.955 171.5,195.5C 172.32,197.111 173.654,197.778 175.5,197.5C 175.281,196.325 175.614,195.325 176.5,194.5C 178.885,194.203 181.218,194.703 183.5,196C 181.377,196.815 179.377,197.815 177.5,199C 169.416,199.287 161.416,200.121 153.5,201.5C 153.5,202.833 153.5,204.167 153.5,205.5C 150.099,207.231 146.599,207.898 143,207.5C 140.88,205.348 138.38,203.848 135.5,203C 130.468,202.664 125.468,202.164 120.5,201.5C 117.972,200.834 115.306,200.168 112.5,199.5C 115.459,198.649 118.459,197.982 121.5,197.5C 123.345,198.938 124.511,198.604 125,196.5C 125.333,197.833 125.667,199.167 126,200.5C 128.159,199.803 130.326,200.137 132.5,201.5C 135.326,200.63 138.326,200.463 141.5,201C 141.957,200.586 142.291,200.086 142.5,199.5C 140.596,198.591 138.762,197.591 137,196.5C 134.861,197.236 132.861,198.236 131,199.5C 125.397,197.954 125.064,195.621 130,192.5C 132.292,193.908 134.459,193.741 136.5,192C 135.09,191.632 134.09,190.799 133.5,189.5C 135.215,186.928 137.215,184.595 139.5,182.5C 148.832,181.601 158.165,181.434 167.5,182C 168.308,181.692 168.975,181.192 169.5,180.5C 168.948,178.997 168.948,177.331 169.5,175.5C 166.833,175.5 164.167,175.5 161.5,175.5C 161.5,174.5 161.5,173.5 161.5,172.5C 162.833,172.5 164.167,172.5 165.5,172.5C 165.5,171.5 165.5,170.5 165.5,169.5C 168.5,169.5 171.5,169.5 174.5,169.5C 176.874,161.188 177.874,161.521 177.5,170.5C 178.5,170.5 179.5,170.5 180.5,170.5 Z"/></g>
<g><path style="opacity:1" fill="#ffffff" d="M 239.5,156.5 C 254.218,164.885 265.551,176.551 273.5,191.5C 273.551,194.541 274.551,197.208 276.5,199.5C 275.215,203.327 274.215,203.327 273.5,199.5C 268.629,199.882 266.629,202.549 267.5,207.5C 265.801,207.66 264.134,207.494 262.5,207C 263.747,205.506 263.747,204.006 262.5,202.5C 261.522,202.977 260.689,203.643 260,204.5C 257.082,210.811 256.915,217.144 259.5,223.5C 259.241,225.987 258.241,227.987 256.5,229.5C 258.33,224.32 257.663,219.486 254.5,215C 255.097,213.938 255.43,212.772 255.5,211.5C 253.664,205.163 251.831,198.83 250,192.5C 245.81,190.462 243.31,187.128 242.5,182.5C 232.644,175.769 232.311,168.602 241.5,161C 239.963,159.89 239.297,158.39 239.5,156.5 Z"/></g>
<g><path style="opacity:1" fill="#ffffff" d="M 186.5,162.5 C 183.798,167.241 181.631,172.241 180,177.5C 178.142,183.581 179.975,188.081 185.5,191C 194.397,192.025 202.73,194.525 210.5,198.5C 209.596,199.209 209.263,200.209 209.5,201.5C 208.127,201.343 206.793,201.51 205.5,202C 206.451,202.718 206.617,203.551 206,204.5C 203.964,203.898 202.13,202.898 200.5,201.5C 197.725,202.417 195.225,201.75 193,199.5C 190.718,200.711 190.218,202.378 191.5,204.5C 193.781,205.185 196.114,205.351 198.5,205C 199.38,206.356 199.714,207.856 199.5,209.5C 196.833,209.5 194.167,209.5 191.5,209.5C 191.5,210.833 191.5,212.167 191.5,213.5C 194.167,213.5 196.833,213.5 199.5,213.5C 199.5,215.5 199.5,217.5 199.5,219.5C 194.167,219.833 188.833,220.167 183.5,220.5C 183.5,222.833 183.5,225.167 183.5,227.5C 173.518,228.257 163.518,228.59 153.5,228.5C 153.808,230.924 153.474,233.257 152.5,235.5C 149.527,236.936 146.527,238.269 143.5,239.5C 142.418,241.959 141.418,244.793 140.5,248C 141.656,252.807 142.822,257.641 144,262.5C 144.671,263.252 145.504,263.586 146.5,263.5C 149.088,267.674 151.421,272.007 153.5,276.5C 141.762,265.47 136.596,251.804 138,235.5C 139.684,228.631 141.517,221.797 143.5,215C 141.895,208.333 137.562,204.667 130.5,204C 117.17,203.27 103.837,202.603 90.5,202C 86.6083,201.581 82.9416,200.748 79.5,199.5C 93.1187,201.026 106.785,201.692 120.5,201.5C 125.468,202.164 130.468,202.664 135.5,203C 138.38,203.848 140.88,205.348 143,207.5C 146.599,207.898 150.099,207.231 153.5,205.5C 153.5,204.167 153.5,202.833 153.5,201.5C 161.416,200.121 169.416,199.287 177.5,199C 179.377,197.815 181.377,196.815 183.5,196C 181.218,194.703 178.885,194.203 176.5,194.5C 175.614,195.325 175.281,196.325 175.5,197.5C 173.654,197.778 172.32,197.111 171.5,195.5C 173.395,193.955 175.395,192.455 177.5,191C 178.061,189.434 177.394,188.101 175.5,187C 176,186.5 176.5,186 177,185.5C 177.333,181.833 177.667,178.167 178,174.5C 178.662,173.016 179.496,171.683 180.5,170.5C 180.635,166.373 182.635,163.706 186.5,162.5 Z"/></g>
<g><path style="opacity:1" fill="#ffffff" d="M 159.5,303.5 C 160.122,305.335 161.456,306.502 163.5,307C 162.207,307.49 160.873,307.657 159.5,307.5C 159.047,306.542 158.381,305.708 157.5,305C 151.706,304.135 146.039,302.801 140.5,301C 137.975,300.576 135.975,299.41 134.5,297.5C 131.101,294.286 127.101,291.786 122.5,290C 118.602,286.271 114.935,282.438 111.5,278.5C 106.239,269.168 100.906,260.001 95.5,251C 87.5363,249.669 79.5363,249.335 71.5,250C 74.1667,250.333 76.8333,250.667 79.5,251C 74.1667,251.333 68.8333,251.667 63.5,252C 61.4835,252.674 59.8168,253.841 58.5,255.5C 56.3486,260.658 52.682,263.991 47.5,265.5C 47.5,264.167 47.5,262.833 47.5,261.5C 40.6844,263.656 36.6844,268.322 35.5,275.5C 34.1667,275.5 32.8333,275.5 31.5,275.5C 31.6621,277.527 31.4955,279.527 31,281.5C 29.8063,279.377 29.1397,277.043 29,274.5C 28.2483,277.894 28.4149,281.227 29.5,284.5C 29.1924,285.308 28.6924,285.975 28,286.5C 27.8279,279.987 27.3279,273.653 26.5,267.5C 26.1328,261.828 25.6328,256.161 25,250.5C 24.6174,251.056 24.1174,251.389 23.5,251.5C 23.167,231.156 23.5004,210.822 24.5,190.5C 51.6203,214.371 83.287,224.871 119.5,222C 120.097,223.062 120.43,224.228 120.5,225.5C 114.927,261.021 127.927,287.021 159.5,303.5 Z"/></g>
<g><path style="opacity:1" fill="#ffffff" d="M 210.5,198.5 C 219.167,202.5 225.5,208.833 229.5,217.5C 229.877,220.525 230.044,223.525 230,226.5C 229.405,222.918 228.071,222.584 226,225.5C 225.798,223.744 225.298,222.078 224.5,220.5C 224.167,221.333 223.833,222.167 223.5,223C 224.409,226.466 225.076,229.966 225.5,233.5C 224.5,233.5 223.5,233.5 222.5,233.5C 222.5,232.167 222.5,230.833 222.5,229.5C 217.446,230.853 212.446,232.519 207.5,234.5C 204.914,235.48 202.247,235.813 199.5,235.5C 199.5,237.5 199.5,239.5 199.5,241.5C 194.167,242.833 188.833,244.167 183.5,245.5C 183.5,246.833 183.5,248.167 183.5,249.5C 180.092,249.563 177.759,251.23 176.5,254.5C 175.614,253.675 175.281,252.675 175.5,251.5C 174.167,251.5 172.833,251.5 171.5,251.5C 171.649,252.552 171.483,253.552 171,254.5C 168.931,255.264 166.764,255.764 164.5,256C 163.663,257.011 163.33,258.178 163.5,259.5C 161.089,259.863 159.589,258.863 159,256.5C 157.954,258.09 156.787,259.59 155.5,261C 160.166,263.502 160.666,266.668 157,270.5C 156.517,269.552 156.351,268.552 156.5,267.5C 153.747,266.286 151.08,264.786 148.5,263C 149.448,262.517 150.448,262.351 151.5,262.5C 151.146,260.459 151.146,258.626 151.5,257C 150,254.833 148.833,255 148,257.5C 147.692,256.692 147.192,256.025 146.5,255.5C 145.85,258.002 145.85,260.669 146.5,263.5C 145.504,263.586 144.671,263.252 144,262.5C 142.822,257.641 141.656,252.807 140.5,248C 141.418,244.793 142.418,241.959 143.5,239.5C 146.527,238.269 149.527,236.936 152.5,235.5C 153.474,233.257 153.808,230.924 153.5,228.5C 163.518,228.59 173.518,228.257 183.5,227.5C 183.5,225.167 183.5,222.833 183.5,220.5C 188.833,220.167 194.167,219.833 199.5,219.5C 199.5,217.5 199.5,215.5 199.5,213.5C 196.833,213.5 194.167,213.5 191.5,213.5C 191.5,212.167 191.5,210.833 191.5,209.5C 194.167,209.5 196.833,209.5 199.5,209.5C 199.714,207.856 199.38,206.356 198.5,205C 196.114,205.351 193.781,205.185 191.5,204.5C 190.218,202.378 190.718,200.711 193,199.5C 195.225,201.75 197.725,202.417 200.5,201.5C 202.13,202.898 203.964,203.898 206,204.5C 206.617,203.551 206.451,202.718 205.5,202C 206.793,201.51 208.127,201.343 209.5,201.5C 209.263,200.209 209.596,199.209 210.5,198.5 Z"/></g>
<g><path style="opacity:1" fill="#ffffff" d="M 273.5,191.5 C 281.548,204.981 286.215,219.648 287.5,235.5C 285.955,236.23 285.122,237.563 285,239.5C 283.215,246.928 282.215,254.261 282,261.5C 279.929,259.545 279.262,257.212 280,254.5C 280.654,255.696 281.154,255.696 281.5,254.5C 279.028,248.804 279.028,243.138 281.5,237.5C 280.976,235.617 280.309,233.784 279.5,232C 280.14,229.943 279.973,227.777 279,225.5C 277.867,223.789 276.367,223.289 274.5,224C 278.99,230.765 279.657,237.932 276.5,245.5C 278.507,249.456 277.84,252.789 274.5,255.5C 273.92,252.025 273.087,248.691 272,245.5C 271.308,246.025 270.808,246.692 270.5,247.5C 271.213,250.096 271.213,252.763 270.5,255.5C 267.482,255.665 264.482,255.498 261.5,255C 263.444,252.847 263.944,250.347 263,247.5C 261.334,248.34 261.167,247.84 262.5,246C 259.733,244.434 257.733,242.267 256.5,239.5C 256.5,236.167 256.5,232.833 256.5,229.5C 258.241,227.987 259.241,225.987 259.5,223.5C 256.915,217.144 257.082,210.811 260,204.5C 260.689,203.643 261.522,202.977 262.5,202.5C 263.747,204.006 263.747,205.506 262.5,207C 264.134,207.494 265.801,207.66 267.5,207.5C 266.629,202.549 268.629,199.882 273.5,199.5C 274.215,203.327 275.215,203.327 276.5,199.5C 274.551,197.208 273.551,194.541 273.5,191.5 Z"/></g>
<g><path style="opacity:1" fill="#ffffff" d="M 229.5,217.5 C 231.625,220.088 232.958,223.088 233.5,226.5C 238.37,253.101 229.037,272.934 205.5,286C 195.715,289.278 185.715,290.112 175.5,288.5C 167.001,286.585 159.667,282.585 153.5,276.5C 151.421,272.007 149.088,267.674 146.5,263.5C 145.85,260.669 145.85,258.002 146.5,255.5C 147.192,256.025 147.692,256.692 148,257.5C 148.833,255 150,254.833 151.5,257C 151.146,258.626 151.146,260.459 151.5,262.5C 150.448,262.351 149.448,262.517 148.5,263C 151.08,264.786 153.747,266.286 156.5,267.5C 156.351,268.552 156.517,269.552 157,270.5C 160.666,266.668 160.166,263.502 155.5,261C 156.787,259.59 157.954,258.09 159,256.5C 159.589,258.863 161.089,259.863 163.5,259.5C 163.33,258.178 163.663,257.011 164.5,256C 166.764,255.764 168.931,255.264 171,254.5C 171.483,253.552 171.649,252.552 171.5,251.5C 172.833,251.5 174.167,251.5 175.5,251.5C 175.281,252.675 175.614,253.675 176.5,254.5C 177.759,251.23 180.092,249.563 183.5,249.5C 183.5,248.167 183.5,246.833 183.5,245.5C 188.833,244.167 194.167,242.833 199.5,241.5C 199.5,239.5 199.5,237.5 199.5,235.5C 202.247,235.813 204.914,235.48 207.5,234.5C 212.446,232.519 217.446,230.853 222.5,229.5C 222.5,230.833 222.5,232.167 222.5,233.5C 223.5,233.5 224.5,233.5 225.5,233.5C 225.076,229.966 224.409,226.466 223.5,223C 223.833,222.167 224.167,221.333 224.5,220.5C 225.298,222.078 225.798,223.744 226,225.5C 228.071,222.584 229.405,222.918 230,226.5C 230.044,223.525 229.877,220.525 229.5,217.5 Z"/></g>
<g><path style="opacity:1" fill="#ffffff" d="M 111.5,278.5 C 106.837,273.834 102.504,268.834 98.5,263.5C 98.4964,264.867 97.8297,266.367 96.5,268C 90.8431,268.499 85.1764,268.666 79.5,268.5C 79.5,269.5 79.5,270.5 79.5,271.5C 82.1667,271.5 84.8333,271.5 87.5,271.5C 87.5,272.833 87.5,274.167 87.5,275.5C 82.1667,275.833 76.8333,276.167 71.5,276.5C 71.5,281.5 71.5,286.5 71.5,291.5C 64.823,292.503 58.1563,292.503 51.5,291.5C 47.4903,292.17 43.4903,292.837 39.5,293.5C 39.5,294.833 39.5,296.167 39.5,297.5C 36.7686,298.027 34.1019,298.86 31.5,300C 30.2609,304.665 29.4276,304.498 29,299.5C 28.6667,302.5 28.3333,305.5 28,308.5C 27.6667,308.167 27.3333,307.833 27,307.5C 26.5001,294.171 26.3334,280.837 26.5,267.5C 27.3279,273.653 27.8279,279.987 28,286.5C 28.6924,285.975 29.1924,285.308 29.5,284.5C 28.4149,281.227 28.2483,277.894 29,274.5C 29.1397,277.043 29.8063,279.377 31,281.5C 31.4955,279.527 31.6621,277.527 31.5,275.5C 32.8333,275.5 34.1667,275.5 35.5,275.5C 36.6844,268.322 40.6844,263.656 47.5,261.5C 47.5,262.833 47.5,264.167 47.5,265.5C 52.682,263.991 56.3486,260.658 58.5,255.5C 59.8168,253.841 61.4835,252.674 63.5,252C 68.8333,251.667 74.1667,251.333 79.5,251C 76.8333,250.667 74.1667,250.333 71.5,250C 79.5363,249.335 87.5363,249.669 95.5,251C 100.906,260.001 106.239,269.168 111.5,278.5 Z"/></g>
<g><path style="opacity:1" fill="#ffffff" d="M 26.5,267.5 C 26.3334,280.837 26.5001,294.171 27,307.5C 27.3333,307.833 27.6667,308.167 28,308.5C 28.3333,305.5 28.6667,302.5 29,299.5C 29.4276,304.498 30.2609,304.665 31.5,300C 34.1019,298.86 36.7686,298.027 39.5,297.5C 39.5,296.167 39.5,294.833 39.5,293.5C 43.4903,292.837 47.4903,292.17 51.5,291.5C 58.1563,292.503 64.823,292.503 71.5,291.5C 71.5,286.5 71.5,281.5 71.5,276.5C 76.8333,276.167 82.1667,275.833 87.5,275.5C 87.5,274.167 87.5,272.833 87.5,271.5C 84.8333,271.5 82.1667,271.5 79.5,271.5C 79.5,270.5 79.5,269.5 79.5,268.5C 85.1764,268.666 90.8431,268.499 96.5,268C 97.8297,266.367 98.4964,264.867 98.5,263.5C 102.504,268.834 106.837,273.834 111.5,278.5C 114.935,282.438 118.602,286.271 122.5,290C 127.101,291.786 131.101,294.286 134.5,297.5C 132.609,296.464 130.776,296.464 129,297.5C 128.667,296.5 128.333,295.5 128,294.5C 126.57,294.306 125.07,294.306 123.5,294.5C 122.936,292.982 121.769,291.316 120,289.5C 119.692,290.308 119.192,290.975 118.5,291.5C 118.446,290.47 118.112,289.303 117.5,288C 116.207,287.51 114.873,287.343 113.5,287.5C 113.421,288.93 113.754,290.264 114.5,291.5C 114.167,292.5 113.5,293.167 112.5,293.5C 111.223,290.966 111.223,288.466 112.5,286C 110.459,284.259 108.292,284.092 106,285.5C 104.948,291.727 101.448,296.061 95.5,298.5C 90.2079,299.495 84.8746,299.828 79.5,299.5C 79.5,302.167 79.5,304.833 79.5,307.5C 76.8333,307.5 74.1667,307.5 71.5,307.5C 71.5,309.5 71.5,311.5 71.5,313.5C 67.3705,313.534 63.3705,314.201 59.5,315.5C 59.5,316.833 59.5,318.167 59.5,319.5C 57.3392,319.509 56.0059,320.176 55.5,321.5C 52.9365,321.263 52.9365,320.763 55.5,320C 54.6667,319.833 53.8333,319.667 53,319.5C 50.5562,319.787 48.0562,320.121 45.5,320.5C 47.9864,322.578 48.9864,325.245 48.5,328.5C 47.1266,328.657 45.7932,328.49 44.5,328C 44.6158,326.732 44.9491,325.398 45.5,324C 44.552,323.517 43.552,323.351 42.5,323.5C 42.7778,325.346 42.1112,326.68 40.5,327.5C 34.4756,323.516 34.1422,324.016 39.5,329C 39.1667,329.167 38.8333,329.333 38.5,329.5C 36.736,327.722 34.736,326.389 32.5,325.5C 27.4222,319.11 24.5889,311.777 24,303.5C 23.5001,286.17 23.3334,268.837 23.5,251.5C 24.1174,251.389 24.6174,251.056 25,250.5C 25.6328,256.161 26.1328,261.828 26.5,267.5 Z"/></g>
<g><path style="opacity:1" fill="#ffffff" d="M 287.5,235.5 C 287.493,244.885 286.827,254.219 285.5,263.5C 279,283.631 268,301.131 252.5,316C 235.439,329.698 216.106,338.198 194.5,341.5C 150.5,341.5 106.5,341.5 62.5,341.5C 67.9753,340.511 73.642,340.178 79.5,340.5C 100.503,340.667 121.503,340.5 142.5,340C 126.833,339.667 111.167,339.333 95.5,339C 106.182,338.832 116.849,338.332 127.5,337.5C 124.893,336.682 122.226,336.182 119.5,336C 124.5,335.667 129.5,335.333 134.5,335C 125.259,334.127 125.259,332.96 134.5,331.5C 135.23,330.066 136.23,328.9 137.5,328C 136.692,327.692 136.025,327.192 135.5,326.5C 138.086,325.52 140.753,325.187 143.5,325.5C 143.739,323.533 143.406,321.699 142.5,320C 143.167,319.333 143.833,318.667 144.5,318C 150.158,316.582 155.825,316.415 161.5,317.5C 162.167,317.167 162.833,316.833 163.5,316.5C 162.948,314.997 162.948,313.331 163.5,311.5C 159.884,312.543 156.217,313.043 152.5,313C 155.585,312.378 158.085,310.878 160,308.5C 164.582,311.357 168.749,311.023 172.5,307.5C 208.205,312.259 234.038,298.592 250,266.5C 253.526,258.053 255.026,249.386 254.5,240.5C 255.492,240.672 256.158,240.338 256.5,239.5C 257.733,242.267 259.733,244.434 262.5,246C 261.167,247.84 261.334,248.34 263,247.5C 263.944,250.347 263.444,252.847 261.5,255C 264.482,255.498 267.482,255.665 270.5,255.5C 271.213,252.763 271.213,250.096 270.5,247.5C 270.808,246.692 271.308,246.025 272,245.5C 273.087,248.691 273.92,252.025 274.5,255.5C 277.84,252.789 278.507,249.456 276.5,245.5C 279.657,237.932 278.99,230.765 274.5,224C 276.367,223.289 277.867,223.789 279,225.5C 279.973,227.777 280.14,229.943 279.5,232C 280.309,233.784 280.976,235.617 281.5,237.5C 279.028,243.138 279.028,248.804 281.5,254.5C 281.154,255.696 280.654,255.696 280,254.5C 279.262,257.212 279.929,259.545 282,261.5C 282.215,254.261 283.215,246.928 285,239.5C 285.122,237.563 285.955,236.23 287.5,235.5 Z"/></g>
<g><path style="opacity:0.475" fill="#ffffff" d="M 233.5,226.5 C 241.15,255.703 231.15,276.536 203.5,289C 195.23,290.537 186.897,290.87 178.5,290C 177.263,289.768 176.263,289.268 175.5,288.5C 185.715,290.112 195.715,289.278 205.5,286C 229.037,272.934 238.37,253.101 233.5,226.5 Z"/></g>
<g><path style="opacity:1" fill="#ffffff" d="M 134.5,297.5 C 135.975,299.41 137.975,300.576 140.5,301C 146.039,302.801 151.706,304.135 157.5,305C 158.381,305.708 159.047,306.542 159.5,307.5C 151.476,305.813 143.476,304.147 135.5,302.5C 133.323,303.504 132.989,302.838 134.5,300.5C 132.667,297.71 131.667,298.043 131.5,301.5C 130.178,301.67 129.011,301.337 128,300.5C 127.517,301.448 127.351,302.448 127.5,303.5C 123.71,303.008 123.044,303.841 125.5,306C 124,307.115 122.333,307.948 120.5,308.5C 119.548,310.045 119.215,311.712 119.5,313.5C 116.833,313.5 114.167,313.5 111.5,313.5C 111.5,315.5 111.5,317.5 111.5,319.5C 108.833,319.5 106.167,319.5 103.5,319.5C 103.5,320.5 103.5,321.5 103.5,322.5C 100.833,322.5 98.1667,322.5 95.5,322.5C 95.5,324.167 95.5,325.833 95.5,327.5C 92.8333,327.5 90.1667,327.5 87.5,327.5C 87.2317,330.119 87.565,332.619 88.5,335C 84.9106,335.207 81.4106,335.707 78,336.5C 76.3333,336.167 74.6667,335.833 73,335.5C 72.5,336 72,336.5 71.5,337C 73.8333,337.333 76.1667,337.667 78.5,338C 72.8333,338.333 67.1667,338.667 61.5,339C 67.6807,339.172 73.6807,339.672 79.5,340.5C 73.642,340.178 67.9753,340.511 62.5,341.5C 50.2013,340.352 40.2013,335.019 32.5,325.5C 34.736,326.389 36.736,327.722 38.5,329.5C 38.8333,329.333 39.1667,329.167 39.5,329C 34.1422,324.016 34.4756,323.516 40.5,327.5C 42.1112,326.68 42.7778,325.346 42.5,323.5C 43.552,323.351 44.552,323.517 45.5,324C 44.9491,325.398 44.6158,326.732 44.5,328C 45.7932,328.49 47.1266,328.657 48.5,328.5C 48.9864,325.245 47.9864,322.578 45.5,320.5C 48.0562,320.121 50.5562,319.787 53,319.5C 53.8333,319.667 54.6667,319.833 55.5,320C 52.9365,320.763 52.9365,321.263 55.5,321.5C 56.0059,320.176 57.3392,319.509 59.5,319.5C 59.5,318.167 59.5,316.833 59.5,315.5C 63.3705,314.201 67.3705,313.534 71.5,313.5C 71.5,311.5 71.5,309.5 71.5,307.5C 74.1667,307.5 76.8333,307.5 79.5,307.5C 79.5,304.833 79.5,302.167 79.5,299.5C 84.8746,299.828 90.2079,299.495 95.5,298.5C 101.448,296.061 104.948,291.727 106,285.5C 108.292,284.092 110.459,284.259 112.5,286C 111.223,288.466 111.223,290.966 112.5,293.5C 113.5,293.167 114.167,292.5 114.5,291.5C 113.754,290.264 113.421,288.93 113.5,287.5C 114.873,287.343 116.207,287.51 117.5,288C 118.112,289.303 118.446,290.47 118.5,291.5C 119.192,290.975 119.692,290.308 120,289.5C 121.769,291.316 122.936,292.982 123.5,294.5C 125.07,294.306 126.57,294.306 128,294.5C 128.333,295.5 128.667,296.5 129,297.5C 130.776,296.464 132.609,296.464 134.5,297.5 Z"/></g>
<g><path style="opacity:0.475" fill="#ffffff" d="M 285.5,263.5 C 280.112,290.722 265.778,311.889 242.5,327C 227.873,336.376 211.873,341.209 194.5,341.5C 216.106,338.198 235.439,329.698 252.5,316C 268,301.131 279,283.631 285.5,263.5 Z"/></g>
<g><path style="opacity:0.999" fill="#ffffff" d="M 159.5,307.5 C 160.873,307.657 162.207,307.49 163.5,307C 161.456,306.502 160.122,305.335 159.5,303.5C 163.776,304.986 168.109,306.319 172.5,307.5C 168.749,311.023 164.582,311.357 160,308.5C 158.085,310.878 155.585,312.378 152.5,313C 156.217,313.043 159.884,312.543 163.5,311.5C 162.948,313.331 162.948,314.997 163.5,316.5C 162.833,316.833 162.167,317.167 161.5,317.5C 155.825,316.415 150.158,316.582 144.5,318C 143.833,318.667 143.167,319.333 142.5,320C 143.406,321.699 143.739,323.533 143.5,325.5C 140.753,325.187 138.086,325.52 135.5,326.5C 136.025,327.192 136.692,327.692 137.5,328C 136.23,328.9 135.23,330.066 134.5,331.5C 125.259,332.96 125.259,334.127 134.5,335C 129.5,335.333 124.5,335.667 119.5,336C 122.226,336.182 124.893,336.682 127.5,337.5C 116.849,338.332 106.182,338.832 95.5,339C 111.167,339.333 126.833,339.667 142.5,340C 121.503,340.5 100.503,340.667 79.5,340.5C 73.6807,339.672 67.6807,339.172 61.5,339C 67.1667,338.667 72.8333,338.333 78.5,338C 76.1667,337.667 73.8333,337.333 71.5,337C 72,336.5 72.5,336 73,335.5C 74.6667,335.833 76.3333,336.167 78,336.5C 81.4106,335.707 84.9106,335.207 88.5,335C 87.565,332.619 87.2317,330.119 87.5,327.5C 90.1667,327.5 92.8333,327.5 95.5,327.5C 95.5,325.833 95.5,324.167 95.5,322.5C 98.1667,322.5 100.833,322.5 103.5,322.5C 103.5,321.5 103.5,320.5 103.5,319.5C 106.167,319.5 108.833,319.5 111.5,319.5C 111.5,317.5 111.5,315.5 111.5,313.5C 114.167,313.5 116.833,313.5 119.5,313.5C 119.215,311.712 119.548,310.045 120.5,308.5C 122.333,307.948 124,307.115 125.5,306C 123.044,303.841 123.71,303.008 127.5,303.5C 127.351,302.448 127.517,301.448 128,300.5C 129.011,301.337 130.178,301.67 131.5,301.5C 131.667,298.043 132.667,297.71 134.5,300.5C 132.989,302.838 133.323,303.504 135.5,302.5C 143.476,304.147 151.476,305.813 159.5,307.5 Z"/></g>
</svg>
